<?xml version="1.0" encoding="UTF-8" standalone="no"?>
<!DOCTYPE svg PUBLIC "-//W3C//DTD SVG 1.1//EN" "http://www.w3.org/Graphics/SVG/1.1/DTD/svg11.dtd">
<svg xmlns="http://www.w3.org/2000/svg" version="1.1" viewBox="0.00 0.00 557.00 448.00">
<g stroke-width="2.00" fill="none" stroke-linecap="butt">
<path stroke="#83bae2" vector-effect="non-scaling-stroke" d="
  M 276.73 95.70
  Q 275.31 122.05 275.68 145.93"
/>
<path stroke="#3497df" vector-effect="non-scaling-stroke" d="
  M 275.68 145.93
  L 276.09 177.39"
/>
<path stroke="#83bae2" vector-effect="non-scaling-stroke" d="
  M 276.09 177.39
  L 273.54 173.58
  A 0.48 0.48 0.0 0 0 272.76 173.56
  L 265.36 183.27"
/>
<path stroke="#1585d5" vector-effect="non-scaling-stroke" d="
  M 265.36 183.27
  Q 264.72 181.99 263.51 181.74
  A 1.60 1.60 0.0 0 1 262.27 179.84
  Q 262.38 179.33 261.93 179.06
  Q 256.96 176.02 252.46 172.49
  Q 251.61 171.82 250.83 170.91
  Q 249.73 169.62 248.62 168.77
  Q 243.27 164.67 237.40 160.21
  C 235.37 158.66 233.21 157.59 231.12 156.16
  Q 230.70 155.87 230.24 156.10
  Q 229.97 156.24 229.80 156.49
  Q 229.37 157.14 229.31 156.36
  L 229.26 155.85"
/>
<path stroke="#91caf2" vector-effect="non-scaling-stroke" d="
  M 265.36 183.27
  L 262.28 187.41
  A 0.54 0.54 0.0 0 0 262.29 188.07
  L 294.28 226.77"
/>
<path stroke="#309be8" vector-effect="non-scaling-stroke" d="
  M 306.09 268.06
  Q 306.46 269.96 303.43 269.28"
/>
<path stroke="#91caf2" vector-effect="non-scaling-stroke" d="
  M 303.43 269.28
  Q 297.42 264.56 294.26 260.98
  Q 258.54 220.58 222.52 180.09
  A 0.40 0.40 0.0 0 0 221.83 180.32
  L 221.75 181.24"
/>
<path stroke="#1274bb" vector-effect="non-scaling-stroke" d="
  M 221.75 181.24
  Q 221.19 181.09 221.03 181.29
  Q 201.53 205.17 181.78 228.78"
/>
<path stroke="#42a7ef" vector-effect="non-scaling-stroke" d="
  M 181.78 228.78
  Q 181.35 227.69 180.41 226.80
  Q 180.26 226.67 180.07 226.62
  Q 179.91 226.58 179.76 226.64
  Q 179.29 226.84 178.85 226.58
  Q 176.74 225.38 174.62 224.35
  C 173.70 223.90 172.93 224.06 171.96 224.00
  Q 171.69 223.98 171.89 223.81
  Q 172.02 223.69 172.20 223.66
  A 0.07 0.07 0.0 0 0 172.22 223.53
  L 163.34 217.92
  Q 162.96 217.67 162.56 217.89
  Q 161.91 218.24 161.47 218.23"
/>
<path stroke="#c4e7ff" vector-effect="non-scaling-stroke" d="
  M 326.26 154.89
  L 338.64 196.01
  Q 338.77 196.45 338.35 196.25
  Q 338.06 196.12 337.93 195.81
  Q 335.69 190.66 333.26 186.13
  Q 323.85 168.65 315.85 153.01
  Q 314.76 150.87 312.99 149.08
  Q 302.58 138.53 292.65 128.08
  Q 289.24 124.50 291.76 128.75
  Q 300.89 144.16 310.28 160.18
  Q 314.04 166.58 317.71 176.51
  Q 328.38 205.36 333.21 219.31"
/>
<path stroke="#b0dcfc" vector-effect="non-scaling-stroke" d="
  M 333.21 219.31
  L 308.75 195.29
  A 1.41 1.41 0.0 0 0 307.18 195.01
  L 303.42 196.70
  A 0.92 0.91 -26.1 0 1 302.23 196.30
  L 275.68 145.93"
/>
<path stroke="#3186c5" vector-effect="non-scaling-stroke" d="
  M 360.33 262.64
  L 335.82 290.02"
/>
<path stroke="#4fadf2" vector-effect="non-scaling-stroke" d="
  M 335.82 290.02
  Q 330.88 288.32 327.19 285.58
  Q 325.18 284.08 322.90 283.09
  Q 321.71 282.57 320.82 281.84
  Q 319.86 281.06 318.84 280.37
  Q 317.47 279.45 315.92 278.07
  Q 313.01 275.47 308.74 272.60
  Q 306.65 271.19 306.09 268.06"
/>
<path stroke="#42a7ef" vector-effect="non-scaling-stroke" d="
  M 306.09 268.06
  Q 300.85 246.64 294.28 226.77"
/>
<path stroke="#b0dcfc" vector-effect="non-scaling-stroke" d="
  M 294.28 226.77
  L 287.69 199.06
  A 0.48 0.48 0.0 0 1 288.51 198.63
  L 293.70 204.25
  Q 294.05 204.63 294.15 204.12
  Q 294.21 203.81 293.99 203.47
  Q 284.98 189.72 276.09 177.39"
/>
<path stroke="#1f7abe" vector-effect="non-scaling-stroke" d="
  M 222.59 217.91
  L 252.80 293.03"
/>
<path stroke="#0364ab" vector-effect="non-scaling-stroke" d="
  M 252.80 293.03
  L 252.66 293.81
  A 0.48 0.48 0.0 0 1 251.94 294.14
  Q 241.71 288.15 231.41 281.59
  Q 211.74 269.04 189.48 255.99
  C 188.31 255.30 186.60 254.62 185.25 254.68
  Q 174.19 255.14 163.47 256.21
  C 161.67 256.39 159.93 257.11 158.26 257.77
  Q 157.94 257.90 157.74 257.81
  Q 157.44 257.67 157.47 257.25"
/>
<path stroke="#3186c5" vector-effect="non-scaling-stroke" d="
  M 157.47 257.25
  Q 158.76 256.35 159.38 255.63
  Q 170.75 242.38 181.78 228.78"
/>
<path stroke="#1f7abe" vector-effect="non-scaling-stroke" d="
  M 335.82 290.02
  L 325.70 300.79"
/>
<path stroke="#228bd8" vector-effect="non-scaling-stroke" d="
  M 325.70 300.79
  L 307.68 314.05"
/>
<path stroke="#309be8" vector-effect="non-scaling-stroke" d="
  M 307.68 314.05
  Q 303.53 312.49 299.93 310.72
  C 298.46 310.00 296.60 309.85 295.03 308.80
  Q 294.20 308.25 293.33 307.94
  Q 292.53 307.67 291.69 307.59
  Q 290.38 307.48 288.64 306.91
  Q 271.18 301.15 253.85 295.14"
/>
<path stroke="#228bd8" vector-effect="non-scaling-stroke" d="
  M 253.85 295.14
  L 252.80 293.03"
/>
<path stroke="#9ed0f5" vector-effect="non-scaling-stroke" d="
  M 303.43 269.28
  Q 304.21 269.96 304.22 269.98
  Q 305.69 271.39 303.85 270.51
  Q 285.61 261.81 269.05 253.19
  A 0.49 0.48 -84.5 0 0 268.36 253.76
  L 271.95 265.31
  Q 272.39 266.74 271.43 265.59
  Q 263.61 256.17 256.18 246.41
  A 13.06 12.94 -88.3 0 0 254.31 244.41
  Q 240.17 232.21 225.68 219.32
  Q 224.05 217.86 222.59 217.91"
/>
<path stroke="#80a9c8" vector-effect="non-scaling-stroke" d="
  M 222.59 217.91
  Q 221.84 216.28 221.34 214.67
  Q 220.87 213.19 220.91 211.26
  Q 221.19 196.25 221.75 181.24"
/>
<path stroke="#3497df" vector-effect="non-scaling-stroke" d="
  M 157.47 257.25
  L 156.68 257.52"
/>
<path stroke="#c4e7ff" vector-effect="non-scaling-stroke" d="
  M 353.71 184.49
  Q 352.66 184.54 353.23 185.54
  Q 359.34 196.29 364.85 206.15
  A 13.65 13.55 -82.8 0 0 367.27 209.29
  C 372.19 214.02 377.86 218.70 381.94 224.13
  Q 385.33 228.66 386.07 230.49
  Q 386.77 232.23 387.23 232.57"
/>
<path stroke="#4591c8" vector-effect="non-scaling-stroke" d="
  M 387.23 232.57
  L 360.33 262.64"
/>
<path stroke="#75c4fc" vector-effect="non-scaling-stroke" d="
  M 360.33 262.64
  L 333.21 219.31"
/>
<path stroke="#80a9c8" vector-effect="non-scaling-stroke" d="
  M 390.72 230.73
  Q 392.02 237.85 393.55 245.00
  Q 394.28 248.39 398.17 251.65"
/>
<path stroke="#1274bb" vector-effect="non-scaling-stroke" d="
  M 398.17 251.65
  C 397.62 253.17 397.32 254.67 398.00 256.26
  Q 414.47 294.66 425.91 323.08
  Q 426.29 324.04 425.54 324.90"
/>
<path stroke="#0364ab" vector-effect="non-scaling-stroke" d="
  M 418.17 324.79
  Q 413.01 321.85 409.25 320.88
  Q 383.70 314.23 358.17 307.49
  Q 349.12 305.10 343.17 304.31
  Q 335.41 303.28 327.87 302.40
  A 6.45 5.06 -22.3 0 1 325.96 301.86
  Q 325.40 301.59 325.70 300.79"
/>
<path stroke="#1585d5" vector-effect="non-scaling-stroke" d="
  M 253.85 295.14
  Q 251.90 295.12 250.26 294.24
  Q 249.99 294.10 250.05 294.40
  Q 250.08 294.56 249.84 294.60
  Q 249.65 294.63 249.52 294.49
  Q 248.61 293.51 247.25 293.61
  Q 235.94 294.43 224.80 295.95
  Q 223.76 296.09 222.78 296.04
  Q 221.80 295.98 220.84 295.93
  Q 218.97 295.82 217.38 296.13
  Q 215.01 296.58 212.51 296.35
  Q 211.42 296.24 210.51 296.78
  Q 209.62 297.31 208.85 298.21"
/>
<path stroke="#83bae2" vector-effect="non-scaling-stroke" d="
  M 208.85 298.21
  L 186.26 275.73
  Q 186.09 275.56 185.96 275.76
  Q 185.89 275.85 185.82 276.02"
/>
<path stroke="#83bae2" vector-effect="non-scaling-stroke" d="
  M 178.69 280.98
  Q 173.33 275.48 168.22 270.04
  Q 167.08 268.84 166.06 268.72"
/>
<path stroke="#1585d5" vector-effect="non-scaling-stroke" d="
  M 307.68 314.05
  Q 300.01 318.97 294.52 325.10"
/>
<path stroke="#c4e7ff" vector-effect="non-scaling-stroke" d="
  M 377.71 212.74
  Q 380.88 219.94 385.21 226.29
  Q 386.57 228.28 388.44 229.77
  Q 388.91 230.14 388.85 230.47"
/>
<path stroke="#80a9c8" vector-effect="non-scaling-stroke" d="
  M 388.85 230.47
  Q 388.34 231.58 387.23 232.57"
/>
<path stroke="#c4e7ff" vector-effect="non-scaling-stroke" d="
  M 452.28 289.54
  Q 449.95 288.34 448.09 286.32
  Q 444.79 282.76 444.54 282.52
  Q 440.69 278.97 437.24 275.53
  Q 420.51 258.86 403.44 242.31
  Q 397.45 236.50 391.66 230.30
  Q 391.32 229.94 390.89 230.18
  Q 390.63 230.32 390.72 230.73"
/>
<path stroke="#4591c8" vector-effect="non-scaling-stroke" d="
  M 390.72 230.73
  Q 390.24 230.04 389.77 229.88
  Q 389.34 229.73 389.08 230.12
  L 388.85 230.47"
/>
<path stroke="#91caf2" vector-effect="non-scaling-stroke" d="
  M 454.93 292.59
  Q 459.73 298.09 465.48 302.56
  Q 465.61 302.66 465.52 302.80
  L 465.35 303.06
  Q 465.20 303.28 464.96 303.15
  Q 447.55 293.62 429.04 284.31
  Q 425.42 282.49 422.67 279.33
  Q 410.57 265.41 398.17 251.65"
/>
<path stroke="#809eb8" vector-effect="non-scaling-stroke" d="
  M 159.44 270.59
  Q 161.68 279.74 167.41 286.83
  Q 172.48 293.12 177.68 299.08
  A 0.27 0.27 0.0 0 0 178.16 298.91
  L 178.69 280.98"
/>
<path stroke="#03599b" vector-effect="non-scaling-stroke" d="
  M 178.69 280.98
  Q 181.56 278.56 184.31 276.38
  Q 184.66 276.09 185.02 276.04
  Q 185.42 275.98 185.82 276.02"
/>
<path stroke="#809eb8" vector-effect="non-scaling-stroke" d="
  M 185.82 276.02
  L 198.11 303.74
  Q 198.49 304.60 199.30 305.07
  L 220.54 317.55"
/>
<path stroke="#004881" vector-effect="non-scaling-stroke" d="
  M 220.54 317.55
  L 220.38 318.00
  Q 220.18 318.53 219.72 318.20
  Q 219.50 318.05 219.21 318.12
  Q 218.95 318.20 218.95 318.47
  Q 218.92 319.71 217.67 319.78
  Q 210.68 320.22 205.00 319.49
  Q 204.71 319.45 204.55 319.19
  Q 204.33 318.84 203.88 318.87
  C 201.78 319.01 200.06 318.11 198.00 317.83
  Q 196.49 317.63 195.08 317.26
  Q 185.65 314.81 171.08 310.58
  Q 164.67 308.71 157.53 306.98
  C 154.48 306.24 151.00 304.70 148.27 303.02
  Q 128.69 291.01 108.75 279.62
  Q 105.77 277.91 102.53 276.41"
/>
<path stroke="#91caf2" vector-effect="non-scaling-stroke" d="
  M 208.85 298.21
  L 235.79 316.16"
/>
<path stroke="#80a9c8" vector-effect="non-scaling-stroke" d="
  M 235.79 316.16
  L 209.20 303.81
  A 0.41 0.40 81.4 0 0 208.73 304.45
  L 220.54 317.55"
/>
<path stroke="#1274bb" vector-effect="non-scaling-stroke" d="
  M 235.79 316.16
  L 247.36 324.67"
/>
<path stroke="#004881" vector-effect="non-scaling-stroke" d="
  M 74.27 298.29
  Q 78.68 300.95 84.25 301.30
  Q 86.06 301.42 86.63 300.02
  Q 90.18 291.33 95.58 285.98"
/>
</g>
<path fill="#0675c5" d="
  M 276.73 95.70
  Q 275.31 122.05 275.68 145.93
  L 276.09 177.39
  L 273.54 173.58
  A 0.48 0.48 0.0 0 0 272.76 173.56
  L 265.36 183.27
  Q 264.72 181.99 263.51 181.74
  A 1.60 1.60 0.0 0 1 262.27 179.84
  Q 262.38 179.33 261.93 179.06
  Q 256.96 176.02 252.46 172.49
  Q 251.61 171.82 250.83 170.91
  Q 249.73 169.62 248.62 168.77
  Q 243.27 164.67 237.40 160.21
  C 235.37 158.66 233.21 157.59 231.12 156.16
  Q 230.70 155.87 230.24 156.10
  Q 229.97 156.24 229.80 156.49
  Q 229.37 157.14 229.31 156.36
  L 229.26 155.85
  Q 236.03 141.69 242.60 127.55
  C 243.30 126.04 244.13 124.61 245.37 123.46
  Q 260.02 109.86 275.35 95.47
  Q 275.60 95.23 275.95 95.26
  Q 276.38 95.30 276.73 95.70
  Z"
/>
<path fill="#ffffff" d="
  M 276.73 95.70
  Q 281.42 99.15 285.09 103.67
  Q 294.01 114.63 302.69 125.79
  Q 314.26 140.68 326.26 154.89
  L 338.64 196.01
  Q 338.77 196.45 338.35 196.25
  Q 338.06 196.12 337.93 195.81
  Q 335.69 190.66 333.26 186.13
  Q 323.85 168.65 315.85 153.01
  Q 314.76 150.87 312.99 149.08
  Q 302.58 138.53 292.65 128.08
  Q 289.24 124.50 291.76 128.75
  Q 300.89 144.16 310.28 160.18
  Q 314.04 166.58 317.71 176.51
  Q 328.38 205.36 333.21 219.31
  L 308.75 195.29
  A 1.41 1.41 0.0 0 0 307.18 195.01
  L 303.42 196.70
  A 0.92 0.91 -26.1 0 1 302.23 196.30
  L 275.68 145.93
  Q 275.31 122.05 276.73 95.70
  Z"
/>
<path fill="#89cfff" d="
  M 326.26 154.89
  Q 328.11 154.91 328.75 153.99
  Q 330.73 151.14 332.59 149.62
  Q 332.99 149.29 333.23 149.75
  Q 342.49 166.79 352.25 183.18
  C 352.58 183.73 353.21 184.11 353.71 184.49
  Q 352.66 184.54 353.23 185.54
  Q 359.34 196.29 364.85 206.15
  A 13.65 13.55 -82.8 0 0 367.27 209.29
  C 372.19 214.02 377.86 218.70 381.94 224.13
  Q 385.33 228.66 386.07 230.49
  Q 386.77 232.23 387.23 232.57
  L 360.33 262.64
  L 333.21 219.31
  Q 328.38 205.36 317.71 176.51
  Q 314.04 166.58 310.28 160.18
  Q 300.89 144.16 291.76 128.75
  Q 289.24 124.50 292.65 128.08
  Q 302.58 138.53 312.99 149.08
  Q 314.76 150.87 315.85 153.01
  Q 323.85 168.65 333.26 186.13
  Q 335.69 190.66 337.93 195.81
  Q 338.06 196.12 338.35 196.25
  Q 338.77 196.45 338.64 196.01
  L 326.26 154.89
  Z"
/>
<path fill="#61b9f9" d="
  M 275.68 145.93
  L 302.23 196.30
  A 0.92 0.91 -26.1 0 0 303.42 196.70
  L 307.18 195.01
  A 1.41 1.41 0.0 0 1 308.75 195.29
  L 333.21 219.31
  L 360.33 262.64
  L 335.82 290.02
  Q 330.88 288.32 327.19 285.58
  Q 325.18 284.08 322.90 283.09
  Q 321.71 282.57 320.82 281.84
  Q 319.86 281.06 318.84 280.37
  Q 317.47 279.45 315.92 278.07
  Q 313.01 275.47 308.74 272.60
  Q 306.65 271.19 306.09 268.06
  Q 300.85 246.64 294.28 226.77
  L 287.69 199.06
  A 0.48 0.48 0.0 0 1 288.51 198.63
  L 293.70 204.25
  Q 294.05 204.63 294.15 204.12
  Q 294.21 203.81 293.99 203.47
  Q 284.98 189.72 276.09 177.39
  L 275.68 145.93
  Z"
/>
<path fill="#2395e5" d="
  M 229.26 155.85
  L 229.31 156.36
  Q 229.37 157.14 229.80 156.49
  Q 229.97 156.24 230.24 156.10
  Q 230.70 155.87 231.12 156.16
  C 233.21 157.59 235.37 158.66 237.40 160.21
  Q 243.27 164.67 248.62 168.77
  Q 249.73 169.62 250.83 170.91
  Q 251.61 171.82 252.46 172.49
  Q 256.96 176.02 261.93 179.06
  Q 262.38 179.33 262.27 179.84
  A 1.60 1.60 0.0 0 0 263.51 181.74
  Q 264.72 181.99 265.36 183.27
  L 262.28 187.41
  A 0.54 0.54 0.0 0 0 262.29 188.07
  L 294.28 226.77
  Q 300.85 246.64 306.09 268.06
  Q 306.46 269.96 303.43 269.28
  Q 297.42 264.56 294.26 260.98
  Q 258.54 220.58 222.52 180.09
  A 0.40 0.40 0.0 0 0 221.83 180.32
  L 221.75 181.24
  Q 221.19 181.09 221.03 181.29
  Q 201.53 205.17 181.78 228.78
  Q 181.35 227.69 180.41 226.80
  Q 180.26 226.67 180.07 226.62
  Q 179.91 226.58 179.76 226.64
  Q 179.29 226.84 178.85 226.58
  Q 176.74 225.38 174.62 224.35
  C 173.70 223.90 172.93 224.06 171.96 224.00
  Q 171.69 223.98 171.89 223.81
  Q 172.02 223.69 172.20 223.66
  A 0.07 0.07 0.0 0 0 172.22 223.53
  L 163.34 217.92
  Q 162.96 217.67 162.56 217.89
  Q 161.91 218.24 161.47 218.23
  Q 167.46 211.89 173.48 205.58
  Q 180.08 198.68 184.73 192.52
  Q 195.66 178.03 206.60 163.16
  A 0.55 0.53 39.3 0 1 207.40 163.09
  L 215.58 170.72
  Q 215.98 171.09 216.37 170.71
  Q 223.47 163.74 229.26 155.85
  Z"
/>
<ellipse fill="#89cfff" cx="0.00" cy="0.00" transform="translate(344.89,159.98) rotate(59.4)" rx="3.86" ry="0.29"/>
<path fill="#ffffff" d="
  M 276.09 177.39
  Q 284.98 189.72 293.99 203.47
  Q 294.21 203.81 294.15 204.12
  Q 294.05 204.63 293.70 204.25
  L 288.51 198.63
  A 0.48 0.48 0.0 0 0 287.69 199.06
  L 294.28 226.77
  L 262.29 188.07
  A 0.54 0.54 0.0 0 1 262.28 187.41
  L 265.36 183.27
  L 272.76 173.56
  A 0.48 0.48 0.0 0 1 273.54 173.58
  L 276.09 177.39
  Z"
/>
<path fill="#ffffff" d="
  M 303.43 269.28
  Q 304.21 269.96 304.22 269.98
  Q 305.69 271.39 303.85 270.51
  Q 285.61 261.81 269.05 253.19
  A 0.49 0.48 -84.5 0 0 268.36 253.76
  L 271.95 265.31
  Q 272.39 266.74 271.43 265.59
  Q 263.61 256.17 256.18 246.41
  A 13.06 12.94 -88.3 0 0 254.31 244.41
  Q 240.17 232.21 225.68 219.32
  Q 224.05 217.86 222.59 217.91
  Q 221.84 216.28 221.34 214.67
  Q 220.87 213.19 220.91 211.26
  Q 221.19 196.25 221.75 181.24
  L 221.83 180.32
  A 0.40 0.40 0.0 0 1 222.52 180.09
  Q 258.54 220.58 294.26 260.98
  Q 297.42 264.56 303.43 269.28
  Z"
/>
<path fill="#005391" d="
  M 221.75 181.24
  Q 221.19 196.25 220.91 211.26
  Q 220.87 213.19 221.34 214.67
  Q 221.84 216.28 222.59 217.91
  L 252.80 293.03
  L 252.66 293.81
  A 0.48 0.48 0.0 0 1 251.94 294.14
  Q 241.71 288.15 231.41 281.59
  Q 211.74 269.04 189.48 255.99
  C 188.31 255.30 186.60 254.62 185.25 254.68
  Q 174.19 255.14 163.47 256.21
  C 161.67 256.39 159.93 257.11 158.26 257.77
  Q 157.94 257.90 157.74 257.81
  Q 157.44 257.67 157.47 257.25
  Q 158.76 256.35 159.38 255.63
  Q 170.75 242.38 181.78 228.78
  Q 201.53 205.17 221.03 181.29
  Q 221.19 181.09 221.75 181.24
  Z"
/>
<path fill="#ffffff" d="
  M 353.71 184.49
  C 356.32 184.96 359.75 184.90 361.74 186.84
  C 363.66 188.72 363.99 191.90 365.53 194.18
  Q 370.86 202.08 376.04 210.44
  Q 376.32 210.89 376.94 211.53
  Q 377.59 212.18 377.71 212.74
  Q 380.88 219.94 385.21 226.29
  Q 386.57 228.28 388.44 229.77
  Q 388.91 230.14 388.85 230.47
  Q 388.34 231.58 387.23 232.57
  Q 386.77 232.23 386.07 230.49
  Q 385.33 228.66 381.94 224.13
  C 377.86 218.70 372.19 214.02 367.27 209.29
  A 13.65 13.55 -82.8 0 1 364.85 206.15
  Q 359.34 196.29 353.23 185.54
  Q 352.66 184.54 353.71 184.49
  Z"
/>
<path fill="#89cfff" d="
  M 377.71 212.74
  Q 393.62 222.36 409.15 231.53
  C 411.02 232.63 412.97 234.38 414.22 236.16
  Q 433.06 262.86 452.28 289.54
  Q 449.95 288.34 448.09 286.32
  Q 444.79 282.76 444.54 282.52
  Q 440.69 278.97 437.24 275.53
  Q 420.51 258.86 403.44 242.31
  Q 397.45 236.50 391.66 230.30
  Q 391.32 229.94 390.89 230.18
  Q 390.63 230.32 390.72 230.73
  Q 390.24 230.04 389.77 229.88
  Q 389.34 229.73 389.08 230.12
  L 388.85 230.47
  Q 388.91 230.14 388.44 229.77
  Q 386.57 228.28 385.21 226.29
  Q 380.88 219.94 377.71 212.74
  Z"
/>
<path fill="#61b9f9" d="
  M 181.78 228.78
  Q 170.75 242.38 159.38 255.63
  Q 158.76 256.35 157.47 257.25
  L 156.68 257.52
  L 141.17 241.40
  A 1.60 1.60 0.0 0 1 141.17 239.18
  L 161.47 218.23
  Q 161.91 218.24 162.56 217.89
  Q 162.96 217.67 163.34 217.92
  L 172.22 223.53
  A 0.07 0.07 0.0 0 1 172.20 223.66
  Q 172.02 223.69 171.89 223.81
  Q 171.69 223.98 171.96 224.00
  C 172.93 224.06 173.70 223.90 174.62 224.35
  Q 176.74 225.38 178.85 226.58
  Q 179.29 226.84 179.76 226.64
  Q 179.91 226.58 180.07 226.62
  Q 180.26 226.67 180.41 226.80
  Q 181.35 227.69 181.78 228.78
  Z"
/>
<path fill="#3da1ea" d="
  M 222.59 217.91
  Q 224.05 217.86 225.68 219.32
  Q 240.17 232.21 254.31 244.41
  A 13.06 12.94 -88.3 0 1 256.18 246.41
  Q 263.61 256.17 271.43 265.59
  Q 272.39 266.74 271.95 265.31
  L 268.36 253.76
  A 0.49 0.48 -84.5 0 1 269.05 253.19
  Q 285.61 261.81 303.85 270.51
  Q 305.69 271.39 304.22 269.98
  Q 304.21 269.96 303.43 269.28
  Q 306.46 269.96 306.09 268.06
  Q 306.65 271.19 308.74 272.60
  Q 313.01 275.47 315.92 278.07
  Q 317.47 279.45 318.84 280.37
  Q 319.86 281.06 320.82 281.84
  Q 321.71 282.57 322.90 283.09
  Q 325.18 284.08 327.19 285.58
  Q 330.88 288.32 335.82 290.02
  L 325.70 300.79
  L 307.68 314.05
  Q 303.53 312.49 299.93 310.72
  C 298.46 310.00 296.60 309.85 295.03 308.80
  Q 294.20 308.25 293.33 307.94
  Q 292.53 307.67 291.69 307.59
  Q 290.38 307.48 288.64 306.91
  Q 271.18 301.15 253.85 295.14
  L 252.80 293.03
  L 222.59 217.91
  Z"
/>
<path fill="#005391" d="
  M 390.72 230.73
  Q 392.02 237.85 393.55 245.00
  Q 394.28 248.39 398.17 251.65
  C 397.62 253.17 397.32 254.67 398.00 256.26
  Q 414.47 294.66 425.91 323.08
  Q 426.29 324.04 425.54 324.90
  L 418.17 324.79
  Q 413.01 321.85 409.25 320.88
  Q 383.70 314.23 358.17 307.49
  Q 349.12 305.10 343.17 304.31
  Q 335.41 303.28 327.87 302.40
  A 6.45 5.06 -22.3 0 1 325.96 301.86
  Q 325.40 301.59 325.70 300.79
  L 335.82 290.02
  L 360.33 262.64
  L 387.23 232.57
  Q 388.34 231.58 388.85 230.47
  L 389.08 230.12
  Q 389.34 229.73 389.77 229.88
  Q 390.24 230.04 390.72 230.73
  Z"
/>
<path fill="#ffffff" d="
  M 452.28 289.54
  L 454.93 292.59
  Q 459.73 298.09 465.48 302.56
  Q 465.61 302.66 465.52 302.80
  L 465.35 303.06
  Q 465.20 303.28 464.96 303.15
  Q 447.55 293.62 429.04 284.31
  Q 425.42 282.49 422.67 279.33
  Q 410.57 265.41 398.17 251.65
  Q 394.28 248.39 393.55 245.00
  Q 392.02 237.85 390.72 230.73
  Q 390.63 230.32 390.89 230.18
  Q 391.32 229.94 391.66 230.30
  Q 397.45 236.50 403.44 242.31
  Q 420.51 258.86 437.24 275.53
  Q 440.69 278.97 444.54 282.52
  Q 444.79 282.76 448.09 286.32
  Q 449.95 288.34 452.28 289.54
  Z"
/>
<path fill="#003d71" d="
  M 159.44 270.59
  Q 161.68 279.74 167.41 286.83
  Q 172.48 293.12 177.68 299.08
  A 0.27 0.27 0.0 0 0 178.16 298.91
  L 178.69 280.98
  Q 181.56 278.56 184.31 276.38
  Q 184.66 276.09 185.02 276.04
  Q 185.42 275.98 185.82 276.02
  L 198.11 303.74
  Q 198.49 304.60 199.30 305.07
  L 220.54 317.55
  L 220.38 318.00
  Q 220.18 318.53 219.72 318.20
  Q 219.50 318.05 219.21 318.12
  Q 218.95 318.20 218.95 318.47
  Q 218.92 319.71 217.67 319.78
  Q 210.68 320.22 205.00 319.49
  Q 204.71 319.45 204.55 319.19
  Q 204.33 318.84 203.88 318.87
  C 201.78 319.01 200.06 318.11 198.00 317.83
  Q 196.49 317.63 195.08 317.26
  Q 185.65 314.81 171.08 310.58
  Q 164.67 308.71 157.53 306.98
  C 154.48 306.24 151.00 304.70 148.27 303.02
  Q 128.69 291.01 108.75 279.62
  Q 105.77 277.91 102.53 276.41
  L 134.53 238.57
  A 1.01 1.01 0.0 0 1 136.09 238.59
  Q 144.84 249.42 152.95 258.95
  Q 155.89 262.41 158.20 269.16
  Q 158.37 269.65 158.67 269.98
  Q 159.13 270.47 159.44 270.59
  Z"
/>
<path fill="#2395e5" d="
  M 398.17 251.65
  Q 410.57 265.41 422.67 279.33
  Q 425.42 282.49 429.04 284.31
  Q 447.55 293.62 464.96 303.15
  Q 465.20 303.28 465.35 303.06
  L 465.52 302.80
  Q 465.61 302.66 465.48 302.56
  Q 459.73 298.09 454.93 292.59
  Q 459.54 293.71 462.95 296.37
  Q 479.83 309.51 496.80 323.60
  Q 497.13 323.88 496.83 324.20
  Q 496.64 324.41 496.00 324.41
  Q 460.77 324.77 425.54 324.90
  Q 426.29 324.04 425.91 323.08
  Q 414.47 294.66 398.00 256.26
  C 397.32 254.67 397.62 253.17 398.17 251.65
  Z"
/>
<path fill="#0675c5" d="
  M 252.80 293.03
  L 253.85 295.14
  Q 251.90 295.12 250.26 294.24
  Q 249.99 294.10 250.05 294.40
  Q 250.08 294.56 249.84 294.60
  Q 249.65 294.63 249.52 294.49
  Q 248.61 293.51 247.25 293.61
  Q 235.94 294.43 224.80 295.95
  Q 223.76 296.09 222.78 296.04
  Q 221.80 295.98 220.84 295.93
  Q 218.97 295.82 217.38 296.13
  Q 215.01 296.58 212.51 296.35
  Q 211.42 296.24 210.51 296.78
  Q 209.62 297.31 208.85 298.21
  L 186.26 275.73
  Q 186.09 275.56 185.96 275.76
  Q 185.89 275.85 185.82 276.02
  Q 185.42 275.98 185.02 276.04
  Q 184.66 276.09 184.31 276.38
  Q 181.56 278.56 178.69 280.98
  Q 173.33 275.48 168.22 270.04
  Q 167.08 268.84 166.06 268.72
  Q 165.74 267.26 164.56 265.98
  Q 160.64 261.74 156.68 257.52
  L 157.47 257.25
  Q 157.44 257.67 157.74 257.81
  Q 157.94 257.90 158.26 257.77
  C 159.93 257.11 161.67 256.39 163.47 256.21
  Q 174.19 255.14 185.25 254.68
  C 186.60 254.62 188.31 255.30 189.48 255.99
  Q 211.74 269.04 231.41 281.59
  Q 241.71 288.15 251.94 294.14
  A 0.48 0.48 0.0 0 0 252.66 293.81
  L 252.80 293.03
  Z"
/>
<path fill="#ffffff" d="
  M 166.06 268.72
  Q 167.08 268.84 168.22 270.04
  Q 173.33 275.48 178.69 280.98
  L 178.16 298.91
  A 0.27 0.27 0.0 0 1 177.68 299.08
  Q 172.48 293.12 167.41 286.83
  Q 161.68 279.74 159.44 270.59
  Q 166.10 272.28 166.06 268.72
  Z"
/>
<path fill="#ffffff" d="
  M 208.85 298.21
  L 235.79 316.16
  L 209.20 303.81
  A 0.41 0.40 81.4 0 0 208.73 304.45
  L 220.54 317.55
  L 199.30 305.07
  Q 198.49 304.60 198.11 303.74
  L 185.82 276.02
  Q 185.89 275.85 185.96 275.76
  Q 186.09 275.56 186.26 275.73
  L 208.85 298.21
  Z"
/>
<path fill="#005391" d="
  M 102.53 276.41
  Q 105.77 277.91 108.75 279.62
  Q 128.69 291.01 148.27 303.02
  C 151.00 304.70 154.48 306.24 157.53 306.98
  Q 164.67 308.71 171.08 310.58
  Q 185.65 314.81 195.08 317.26
  Q 196.49 317.63 198.00 317.83
  C 200.06 318.11 201.78 319.01 203.88 318.87
  Q 204.33 318.84 204.55 319.19
  Q 204.71 319.45 205.00 319.49
  Q 210.68 320.22 217.67 319.78
  Q 218.92 319.71 218.95 318.47
  Q 218.95 318.20 219.21 318.12
  Q 219.50 318.05 219.72 318.20
  Q 220.18 318.53 220.38 318.00
  L 220.54 317.55
  L 208.73 304.45
  A 0.41 0.40 81.4 0 1 209.20 303.81
  L 235.79 316.16
  L 247.36 324.67
  Q 235.18 324.21 217.00 324.22
  Q 133.87 324.27 55.50 324.38
  Q 50.76 324.39 47.30 324.54
  Q 44.94 324.65 46.69 323.07
  L 74.27 298.29
  Q 78.68 300.95 84.25 301.30
  Q 86.06 301.42 86.63 300.02
  Q 90.18 291.33 95.58 285.98
  Q 102.99 290.54 109.30 294.62
  Q 109.72 294.89 110.17 294.87
  Q 110.50 294.85 110.69 294.58
  Q 110.96 294.19 110.67 293.82
  L 100.62 280.82
  A 1.76 1.76 0.0 0 1 100.43 278.96
  Q 101.16 277.48 102.53 276.41
  Z"
/>
<path fill="#003d71" d="
  M 95.58 285.98
  Q 90.18 291.33 86.63 300.02
  Q 86.06 301.42 84.25 301.30
  Q 78.68 300.95 74.27 298.29
  L 93.02 277.61
  A 0.42 0.42 0.0 0 1 93.74 277.82
  Q 94.06 279.78 94.34 281.99
  Q 94.67 284.70 95.58 285.98
  Z"
/>
<path fill="#2395e5" d="
  M 253.85 295.14
  Q 271.18 301.15 288.64 306.91
  Q 290.38 307.48 291.69 307.59
  Q 292.53 307.67 293.33 307.94
  Q 294.20 308.25 295.03 308.80
  C 296.60 309.85 298.46 310.00 299.93 310.72
  Q 303.53 312.49 307.68 314.05
  Q 300.01 318.97 294.52 325.10
  L 247.36 324.67
  L 235.79 316.16
  L 208.85 298.21
  Q 209.62 297.31 210.51 296.78
  Q 211.42 296.24 212.51 296.35
  Q 215.01 296.58 217.38 296.13
  Q 218.97 295.82 220.84 295.93
  Q 221.80 295.98 222.78 296.04
  Q 223.76 296.09 224.80 295.95
  Q 235.94 294.43 247.25 293.61
  Q 248.61 293.51 249.52 294.49
  Q 249.65 294.63 249.84 294.60
  Q 250.08 294.56 250.05 294.40
  Q 249.99 294.10 250.26 294.24
  Q 251.90 295.12 253.85 295.14
  Z"
/>
<path fill="#0675c5" d="
  M 325.70 300.79
  Q 325.40 301.59 325.96 301.86
  A 6.45 5.06 -22.3 0 0 327.87 302.40
  Q 335.41 303.28 343.17 304.31
  Q 349.12 305.10 358.17 307.49
  Q 383.70 314.23 409.25 320.88
  Q 413.01 321.85 418.17 324.79
  L 294.52 325.10
  Q 300.01 318.97 307.68 314.05
  L 325.70 300.79
  Z"
/>
</svg>
