<?xml version="1.0" encoding="UTF-8" standalone="no"?>
<!DOCTYPE svg PUBLIC "-//W3C//DTD SVG 1.1//EN" "http://www.w3.org/Graphics/SVG/1.1/DTD/svg11.dtd">
<svg xmlns="http://www.w3.org/2000/svg" version="1.1" viewBox="0.00 0.00 557.00 448.00">
<g stroke-width="2.00" fill="none" stroke-linecap="butt">
<path stroke="#a7aaa9" vector-effect="non-scaling-stroke" d="
  M 339.72 187.67
  L 310.49 169.36"
/>
<path stroke="#babebe" vector-effect="non-scaling-stroke" d="
  M 310.49 169.36
  C 308.45 167.13 306.54 164.55 304.75 161.63
  C 303.27 159.20 301.80 157.20 300.33 155.63
  C 293.72 148.55 287.22 141.46 280.83 134.35
  C 278.02 131.21 274.94 128.31 272.09 125.28
  C 271.72 124.89 271.60 124.96 271.73 125.48
  L 279.62 157.12
  C 279.79 157.79 279.58 157.93 279.01 157.54
  C 276.84 156.07 274.72 154.83 272.65 153.84
  C 271.92 153.49 271.81 153.63 272.31 154.26
  L 290.72 177.51"
/>
<path stroke="#8b8e8c" vector-effect="non-scaling-stroke" d="
  M 290.72 177.51
  L 337.47 236.17"
/>
<path stroke="#9fa2a1" vector-effect="non-scaling-stroke" d="
  M 337.47 236.17
  L 316.09 223.09"
/>
<path stroke="#a7aaa9" vector-effect="non-scaling-stroke" d="
  M 316.09 223.09
  C 305.99 216.60 295.74 210.03 285.33 203.37
  C 283.89 202.44 282.82 201.38 282.13 200.19
  C 280.27 196.96 278.29 193.86 276.19 190.87
  C 275.75 190.24 275.17 189.80 274.44 189.55
  L 264.10 186.02
  C 263.75 185.90 263.52 185.66 263.41 185.31
  L 260.55 176.18"
/>
<path stroke="#babebe" vector-effect="non-scaling-stroke" d="
  M 260.55 176.18
  L 250.46 173.06"
/>
<path stroke="#8b8e8c" vector-effect="non-scaling-stroke" d="
  M 250.46 173.06
  C 250.31 158.09 247.33 143.82 241.51 130.26"
/>
<path stroke="#808281" vector-effect="non-scaling-stroke" d="
  M 241.51 130.26
  C 241.32 129.90 241.48 129.40 242.00 128.75
  C 245.91 123.90 249.77 119.01 253.58 114.06
  C 254.53 112.83 255.16 111.46 255.47 109.94
  C 256.91 102.92 258.33 95.81 259.73 88.62"
/>
<path stroke="#585d62" vector-effect="non-scaling-stroke" d="
  M 341.15 189.12
  C 339.87 191.29 338.03 192.65 335.63 193.20
  C 335.17 193.31 334.84 193.70 334.82 194.17
  C 334.80 194.63 334.59 194.80 334.19 194.67
  C 333.81 194.55 333.49 194.65 333.24 194.96
  C 332.57 195.81 331.69 196.20 330.60 196.13
  C 330.41 196.12 330.22 196.15 330.04 196.24
  L 327.21 197.55"
/>
<path stroke="#585d62" vector-effect="non-scaling-stroke" d="
  M 316.09 223.09
  L 320.11 228.13
  C 320.20 228.23 320.23 228.35 320.22 228.49
  C 320.20 228.62 320.13 228.70 320.00 228.72
  C 319.58 228.79 319.53 228.96 319.85 229.23
  C 320.00 229.36 320.04 229.53 319.97 229.72
  C 319.87 230.00 319.59 230.16 319.30 230.10
  C 318.73 229.99 318.29 230.12 317.98 230.51
  C 317.93 230.58 317.86 230.65 317.79 230.70
  C 317.28 231.06 317.00 231.06 316.96 230.70
  C 316.89 230.09 316.64 230.00 316.21 230.44
  C 315.13 231.54 314.02 232.56 312.87 233.49
  C 312.66 233.67 312.43 233.80 312.16 233.87
  L 303.52 236.40"
/>
<path stroke="#878e94" vector-effect="non-scaling-stroke" d="
  M 265.95 220.41
  C 262.09 218.48 258.92 216.53 256.44 214.57
  C 252.99 211.84 249.45 208.63 245.81 204.92"
/>
<path stroke="#72797f" vector-effect="non-scaling-stroke" d="
  M 260.55 176.18
  L 259.61 176.20
  C 259.19 176.20 259.08 176.38 259.28 176.75
  C 259.91 177.88 260.13 179.15 259.96 180.58
  C 259.93 180.87 259.99 181.13 260.16 181.36
  C 260.46 181.79 260.62 182.28 260.63 182.83
  C 260.64 183.13 260.50 183.26 260.21 183.21
  C 259.22 183.06 258.47 183.46 257.94 184.40
  C 257.69 184.85 257.31 185.01 256.82 184.88
  C 256.03 184.68 255.41 184.90 254.96 185.54
  C 254.68 185.94 254.30 186.14 253.82 186.13
  C 253.12 186.12 252.46 186.24 251.83 186.51
  C 251.52 186.64 251.38 186.87 251.39 187.20
  C 251.44 188.53 250.79 189.24 249.42 189.33"
/>
<path stroke="#575c63" vector-effect="non-scaling-stroke" d="
  M 250.46 173.06
  C 250.59 178.44 250.25 183.86 249.42 189.33"
/>
<path stroke="#44494e" vector-effect="non-scaling-stroke" d="
  M 249.42 189.33
  L 245.81 204.92"
/>
<path stroke="#6b7178" vector-effect="non-scaling-stroke" d="
  M 245.81 204.92
  C 241.06 200.71 236.48 196.55 232.05 192.45
  C 231.59 192.02 231.26 192.13 231.06 192.76"
/>
<path stroke="#1d2126" vector-effect="non-scaling-stroke" d="
  M 231.06 192.76
  C 230.48 192.42 230.05 192.38 229.78 192.63
  C 212.98 208.33 196.25 224.23 179.59 240.33
  C 178.50 241.39 177.35 242.50 176.14 243.67
  C 168.13 251.38 160.14 259.21 152.18 267.14
  C 151.49 267.83 150.79 268.38 150.06 268.81
  C 149.35 269.23 148.54 269.67 147.65 270.13"
/>
<path stroke="#44494e" vector-effect="non-scaling-stroke" d="
  M 147.65 270.13
  L 144.54 269.80
  C 143.05 269.64 142.88 270.03 144.04 270.98
  C 148.29 274.47 151.26 278.47 152.95 283.00"
/>
<path stroke="#1d2126" vector-effect="non-scaling-stroke" d="
  M 241.51 130.26
  L 240.62 130.83
  C 240.35 131.00 240.12 131.21 239.93 131.48
  C 230.24 144.96 221.05 157.54 212.36 169.21
  C 201.75 183.46 192.72 196.09 182.89 209.13
  C 173.03 222.20 163.18 235.45 153.35 248.86
  C 151.66 251.17 149.85 253.44 147.93 255.67
  C 146.59 257.24 145.41 258.79 144.39 260.34
  C 143.45 261.78 142.63 263.35 141.93 265.06
  C 141.43 266.27 141.43 267.56 141.92 268.95
  C 142.31 270.05 142.16 271.06 141.48 271.97
  C 135.22 280.36 128.98 288.81 122.77 297.32
  C 121.51 299.05 121.84 299.45 123.77 298.52
  C 126.86 297.04 130.00 294.98 133.19 293.32
  C 139.38 290.09 145.97 286.65 152.95 283.00"
/>
<path stroke="#393d42" vector-effect="non-scaling-stroke" d="
  M 152.95 283.00
  L 152.84 289.53"
/>
<path stroke="#1d2126" vector-effect="non-scaling-stroke" d="
  M 152.84 289.53
  L 149.40 301.49
  C 149.33 301.74 149.60 301.95 149.82 301.82
  C 153.71 299.58 157.25 297.67 160.42 296.10
  C 160.95 295.84 161.52 295.76 162.13 295.87
  C 162.56 295.94 162.78 296.42 162.55 296.79
  C 161.61 298.30 160.51 299.80 159.24 301.27
  C 149.84 312.16 140.37 323.04 130.84 333.90
  C 130.67 334.09 130.75 334.38 130.98 334.48
  C 136.60 336.76 142.10 338.98 147.48 341.15
  C 149.90 342.13 154.12 342.99 156.50 341.29
  C 167.41 333.51 178.39 325.70 189.44 317.85"
/>
<path stroke="#393d42" vector-effect="non-scaling-stroke" d="
  M 189.44 317.85
  L 203.52 308.17"
/>
<path stroke="#1d2126" vector-effect="non-scaling-stroke" d="
  M 203.52 308.17
  L 272.17 260.88"
/>
<path stroke="#31353a" vector-effect="non-scaling-stroke" d="
  M 272.17 260.88
  L 281.59 254.54"
/>
<path stroke="#4c5157" vector-effect="non-scaling-stroke" d="
  M 281.59 254.54
  L 289.82 249.12"
/>
<path stroke="#1d2126" vector-effect="non-scaling-stroke" d="
  M 289.82 249.12
  C 290.83 248.84 291.82 248.46 292.80 247.99
  C 293.09 247.86 293.26 248.04 293.32 248.54"
/>
<path stroke="#60666c" vector-effect="non-scaling-stroke" d="
  M 293.32 248.54
  L 293.43 254.79"
/>
<path stroke="#1d2126" vector-effect="non-scaling-stroke" d="
  M 293.43 254.79
  L 274.02 280.14
  C 273.09 281.35 273.29 281.56 274.60 280.79
  C 275.40 280.32 276.16 279.75 276.88 279.10
  C 278.80 277.38 279.21 277.68 278.10 280.01
  L 262.13 313.55
  C 262.04 313.74 262.20 313.95 262.41 313.91
  C 262.77 313.84 263.09 313.67 263.37 313.42
  C 266.55 310.53 269.82 307.56 273.28 304.96
  C 281.53 298.75 289.60 292.33 297.50 285.70
  C 299.02 284.43 299.37 284.70 298.56 286.51
  L 291.70 301.74
  C 291.30 302.64 291.54 302.87 292.42 302.43
  L 306.29 295.50"
/>
<path stroke="#393d42" vector-effect="non-scaling-stroke" d="
  M 306.29 295.50
  L 310.57 297.06
  C 311.04 297.23 311.33 297.71 311.25 298.21
  L 309.86 307.17"
/>
<path stroke="#1d2126" vector-effect="non-scaling-stroke" d="
  M 309.86 307.17
  L 304.34 323.52
  C 304.09 324.25 304.29 324.40 304.92 323.97
  L 319.23 314.23"
/>
<path stroke="#393d42" vector-effect="non-scaling-stroke" d="
  M 319.23 314.23
  C 320.66 315.02 321.51 315.75 321.76 316.44"
/>
<path stroke="#31353a" vector-effect="non-scaling-stroke" d="
  M 321.76 316.44
  L 321.25 325.53"
/>
<path stroke="#1d2126" vector-effect="non-scaling-stroke" d="
  M 321.25 325.53
  L 315.21 336.77
  C 315.00 337.17 315.32 337.64 315.76 337.58
  L 330.51 335.63"
/>
<path stroke="#31353a" vector-effect="non-scaling-stroke" d="
  M 330.51 335.63
  L 335.81 338.98
  C 336.27 339.27 336.51 339.80 336.43 340.33
  C 336.12 342.44 335.82 344.53 335.55 346.58
  C 335.41 347.64 335.79 348.72 336.68 349.82
  C 337.68 351.07 340.04 354.20 343.75 359.22"
/>
<path stroke="#72797f" vector-effect="non-scaling-stroke" d="
  M 310.49 169.36
  C 310.40 169.37 310.31 169.40 310.22 169.45
  C 309.95 169.59 309.81 169.90 309.90 170.19
  C 309.95 170.38 309.95 170.56 309.90 170.74
  C 309.79 171.07 309.57 171.27 309.23 171.34
  C 307.31 171.74 305.49 172.51 303.78 173.65"
/>
<path stroke="#575c63" vector-effect="non-scaling-stroke" d="
  M 303.78 173.65
  L 299.50 169.32
  C 299.18 168.99 299.06 169.06 299.13 169.51
  L 301.34 183.50
  C 301.41 183.94 301.26 184.04 300.88 183.81
  L 290.72 177.51"
/>
<path stroke="#44494e" vector-effect="non-scaling-stroke" d="
  M 303.78 173.65
  L 327.21 197.55"
/>
<path stroke="#3c4146" vector-effect="non-scaling-stroke" d="
  M 327.21 197.55
  L 359.35 229.13
  C 359.58 229.34 359.70 229.30 359.73 228.99
  L 360.69 218.00"
/>
<path stroke="#1d2126" vector-effect="non-scaling-stroke" d="
  M 374.70 234.58
  C 375.02 234.78 375.28 235.02 375.49 235.31
  C 375.68 235.57 375.92 235.76 376.22 235.87
  C 377.30 236.27 378.25 236.91 379.08 237.80
  C 379.38 238.13 379.41 238.47 379.18 238.84
  C 375.17 245.13 370.36 250.77 364.74 255.77
  C 362.55 257.72 360.43 259.67 358.38 261.64
  C 353.18 266.61 347.96 271.62 342.72 276.66"
/>
<path stroke="#575c63" vector-effect="non-scaling-stroke" d="
  M 342.72 276.66
  C 338.37 272.91 334.26 269.55 330.41 266.59
  C 327.72 264.52 325.44 263.40 323.57 263.22
  C 320.52 262.92 317.06 263.42 313.21 264.73
  C 312.73 264.89 312.20 264.74 311.88 264.34
  L 310.24 262.28"
/>
<path stroke="#6b7178" vector-effect="non-scaling-stroke" d="
  M 310.24 262.28
  C 305.29 255.33 301.33 250.14 294.17 247.38
  C 293.77 247.23 293.53 247.36 293.46 247.78
  L 293.32 248.54"
/>
<path stroke="#575c63" vector-effect="non-scaling-stroke" d="
  M 289.82 249.12
  C 289.69 248.75 289.60 248.57 289.54 248.57"
/>
<path stroke="#6b7178" vector-effect="non-scaling-stroke" d="
  M 289.54 248.57
  C 284.66 241.65 279.79 234.72 274.94 227.78
  C 274.30 226.86 273.52 226.08 272.61 225.43
  C 270.11 223.66 267.89 221.98 265.95 220.41"
/>
<path stroke="#44494e" vector-effect="non-scaling-stroke" d="
  M 265.95 220.41
  L 261.98 199.91
  C 261.80 198.97 262.06 198.82 262.77 199.46
  L 303.52 236.40"
/>
<path stroke="#3c4146" vector-effect="non-scaling-stroke" d="
  M 303.52 236.40
  L 354.44 261.41
  C 356.07 262.21 356.35 261.88 355.28 260.41
  L 337.47 236.17"
/>
<path stroke="#9aa1a9" vector-effect="non-scaling-stroke" d="
  M 289.54 248.57
  C 289.58 248.66 289.58 248.74 289.53 248.82
  C 289.49 248.89 289.43 248.92 289.34 248.91
  C 285.49 248.30 281.88 247.19 278.53 245.59
  C 277.48 245.08 276.44 244.58 275.41 244.08
  C 275.10 243.93 274.79 243.93 274.48 244.09
  L 269.80 246.47"
/>
<path stroke="#7f868c" vector-effect="non-scaling-stroke" d="
  M 269.80 246.47
  C 262.33 242.10 254.81 237.79 247.25 233.56
  C 246.30 233.03 245.51 232.38 244.87 231.60
  C 241.27 227.20 237.41 222.73 233.30 218.19
  C 232.95 217.80 232.74 217.87 232.69 218.39
  C 232.36 221.68 231.08 224.86 228.84 227.94
  C 227.72 229.49 225.94 230.98 223.51 232.43
  C 217.60 235.94 211.74 239.63 205.92 243.48"
/>
<path stroke="#6b7178" vector-effect="non-scaling-stroke" d="
  M 205.92 243.48
  L 207.35 232.41"
/>
<path stroke="#60666c" vector-effect="non-scaling-stroke" d="
  M 207.35 232.41
  C 210.47 230.37 213.39 228.08 216.11 225.54
  C 218.21 223.59 219.93 221.40 221.28 218.97
  C 222.65 216.52 223.84 213.97 224.83 211.33
  C 227.13 205.19 229.21 199.00 231.06 192.76"
/>
<path stroke="#1d2126" vector-effect="non-scaling-stroke" d="
  M 207.35 232.41
  C 205.24 233.21 203.85 234.49 203.19 236.24
  C 195.76 256.05 188.90 273.69 182.60 289.18"
/>
<path stroke="#393d42" vector-effect="non-scaling-stroke" d="
  M 182.60 289.18
  C 178.96 286.02 176.16 282.71 174.20 279.25
  C 173.85 278.62 173.45 278.19 173.00 277.95
  C 169.53 276.13 165.86 274.51 161.84 273.50
  C 157.29 272.35 152.56 271.23 147.65 270.13"
/>
<path stroke="#44494e" vector-effect="non-scaling-stroke" d="
  M 189.44 317.85
  L 177.31 316.31
  C 176.26 316.18 175.33 315.78 174.52 315.11
  C 172.89 313.76 171.26 312.33 169.65 310.80
  C 168.86 310.05 168.48 309.11 168.49 307.97
  C 168.53 305.14 168.51 302.35 168.43 299.60
  C 168.42 299.14 168.18 298.71 167.80 298.46
  C 165.06 296.66 163.09 294.64 159.94 293.17
  C 157.47 292.02 155.10 290.81 152.84 289.53"
/>
<path stroke="#9aa1a9" vector-effect="non-scaling-stroke" d="
  M 310.24 262.28
  C 310.33 262.62 310.21 262.86 309.89 263.01
  C 309.57 263.16 309.34 263.07 309.19 262.74
  C 309.11 262.55 308.97 262.48 308.77 262.53
  C 307.83 262.73 306.95 263.07 306.17 263.55
  C 304.31 264.68 302.40 265.41 300.44 265.76
  C 299.36 265.95 298.41 266.40 297.59 267.09
  C 296.76 267.81 295.99 268.66 295.29 269.65"
/>
<path stroke="#6b7178" vector-effect="non-scaling-stroke" d="
  M 295.29 269.65
  L 293.43 254.79"
/>
<path stroke="#575c63" vector-effect="non-scaling-stroke" d="
  M 295.29 269.65
  L 298.57 278.80"
/>
<path stroke="#44494e" vector-effect="non-scaling-stroke" d="
  M 298.57 278.80
  C 300.44 285.44 303.01 291.01 306.29 295.50"
/>
<path stroke="#44494e" vector-effect="non-scaling-stroke" d="
  M 203.52 308.17
  L 182.60 289.18"
/>
<path stroke="#6b7177" vector-effect="non-scaling-stroke" d="
  M 269.80 246.47
  L 281.59 254.54"
/>
<path stroke="#3c4146" vector-effect="non-scaling-stroke" d="
  M 272.17 260.88
  L 252.92 245.08
  C 252.53 244.76 252.33 244.85 252.32 245.36
  C 252.31 247.00 252.44 248.66 252.69 250.34
  C 253.64 256.58 254.46 262.80 255.15 269.01
  C 255.44 271.61 254.82 271.85 253.30 269.72
  L 231.61 239.38
  C 231.23 238.85 230.46 238.80 230.02 239.28
  L 226.83 242.75
  C 226.42 243.20 226.24 243.82 226.36 244.42
  C 228.17 253.30 229.76 262.07 231.14 270.72
  C 231.17 270.91 231.22 271.08 231.28 271.25
  C 231.35 271.42 231.34 271.58 231.25 271.73
  C 231.13 271.94 230.83 271.93 230.72 271.72
  C 226.58 263.98 222.29 256.24 217.85 248.49
  C 217.80 248.40 217.73 248.35 217.62 248.32
  C 217.55 248.30 217.51 248.28 217.48 248.25
  C 217.33 248.07 217.04 248.15 217.01 248.38
  C 215.58 257.61 214.31 266.65 213.20 275.50
  C 213.12 276.17 212.97 276.19 212.76 275.54
  C 212.49 274.70 212.24 273.95 211.76 273.20
  C 208.45 268.02 206.44 263.33 205.73 259.14
  C 205.35 256.87 204.90 254.57 204.38 252.26
  C 204.03 250.68 204.54 247.75 205.92 243.48"
/>
<path stroke="#3c4146" vector-effect="non-scaling-stroke" d="
  M 330.51 335.63
  L 321.25 325.53"
/>
<path stroke="#585d62" vector-effect="non-scaling-stroke" d="
  M 376.11 309.09
  L 370.15 309.38
  C 369.82 309.39 369.53 309.50 369.27 309.71
  C 369.09 309.86 368.89 309.95 368.67 309.98
  C 366.90 310.21 365.03 310.51 363.06 310.87
  C 362.71 310.94 362.43 311.11 362.21 311.39
  C 361.73 311.99 361.23 312.02 360.70 311.47
  C 360.56 311.32 360.42 311.32 360.29 311.48
  C 359.85 311.99 359.26 312.22 358.52 312.17
  C 356.85 312.05 355.24 312.12 353.69 312.38
  C 353.28 312.45 353.10 312.69 353.13 313.10
  C 353.14 313.25 353.12 313.40 353.07 313.54
  C 352.93 313.93 352.65 314.12 352.24 314.12
  L 343.74 314.12
  C 343.43 314.12 343.21 314.27 343.09 314.56
  C 343.02 314.73 342.91 314.87 342.74 314.96
  C 342.41 315.15 342.17 315.07 342.02 314.71
  C 341.79 314.18 341.34 313.97 340.65 314.08
  C 340.34 314.13 340.15 314.31 340.06 314.61
  C 340.03 314.74 339.96 314.84 339.85 314.91
  C 339.63 315.06 339.39 315.13 339.14 315.13
  C 337.40 315.13 335.59 315.12 333.72 315.11
  C 333.34 315.11 333.11 315.29 333.03 315.66
  C 333.01 315.75 332.96 315.83 332.89 315.88
  C 332.64 316.05 332.36 316.14 332.06 316.14
  C 331.35 316.13 330.65 316.12 329.94 316.09
  C 329.65 316.08 329.38 316.21 329.21 316.45
  C 328.73 317.14 328.08 317.33 327.26 317.04
  C 327.03 316.96 326.80 316.94 326.57 316.99
  L 323.59 317.64
  C 323.30 317.70 323.04 317.65 322.80 317.50
  C 322.40 317.25 322.05 316.89 321.76 316.44"
/>
<path stroke="#44494e" vector-effect="non-scaling-stroke" d="
  M 319.23 314.23
  L 309.86 307.17"
/>
<path stroke="#6b7177" vector-effect="non-scaling-stroke" d="
  M 389.89 312.55
  L 376.11 309.09"
/>
<path stroke="#72797f" vector-effect="non-scaling-stroke" d="
  M 376.11 309.09
  C 366.46 306.23 356.84 303.41 347.25 300.62
  C 343.50 299.53 340.46 298.43 338.15 297.32
  C 325.18 291.07 311.99 284.90 298.57 278.80"
/>
<path stroke="#31353a" vector-effect="non-scaling-stroke" d="
  M 401.64 229.44
  L 377.10 258.28"
/>
<path stroke="#1d2126" vector-effect="non-scaling-stroke" d="
  M 377.10 258.28
  L 346.65 280.00"
/>
<path stroke="#4c5157" vector-effect="non-scaling-stroke" d="
  M 346.65 280.00
  L 342.72 276.66"
/>
<path stroke="#1d2126" vector-effect="non-scaling-stroke" d="
  M 417.56 258.63
  C 417.29 258.64 417.07 258.65 416.91 258.67
  C 416.71 258.70 416.58 258.81 416.51 259.00
  C 411.54 272.46 406.64 285.83 401.83 299.12
  C 401.77 299.27 401.97 299.39 402.08 299.27
  L 425.52 274.91"
/>
<path stroke="#44494e" vector-effect="non-scaling-stroke" d="
  M 425.52 274.91
  C 426.95 276.20 428.72 277.62 430.85 279.17
  C 432.65 280.49 432.49 282.78 432.75 285.76"
/>
<path stroke="#3c4146" vector-effect="non-scaling-stroke" d="
  M 432.75 285.76
  L 438.60 327.91
  C 438.65 328.30 438.85 328.39 439.19 328.18
  C 444.76 324.65 450.22 321.24 455.57 317.97
  C 456.72 317.27 457.89 316.76 459.09 316.44
  C 459.44 316.35 459.76 316.39 460.07 316.58
  L 465.45 319.82
  C 465.76 320.01 466.09 320.10 466.44 320.09
  C 467.45 320.07 468.45 319.89 469.42 319.55
  C 470.80 319.07 472.11 319.53 473.62 319.05
  C 475.11 318.58 476.60 318.14 478.07 317.72
  C 478.39 317.63 478.65 317.47 478.84 317.22
  C 478.90 317.15 478.91 317.08 478.88 317.00
  C 478.67 316.43 478.86 316.25 479.43 316.47
  C 480.02 316.70 480.30 316.62 480.28 316.24"
/>
<path stroke="#3c4146" vector-effect="non-scaling-stroke" d="
  M 438.28 343.68
  L 389.89 312.55"
/>
<path stroke="#575c63" vector-effect="non-scaling-stroke" d="
  M 389.89 312.55
  C 381.51 307.14 373.22 301.75 365.01 296.36
  C 362.68 294.83 360.42 292.96 358.22 290.75
  C 354.42 286.92 350.56 283.34 346.65 280.00"
/>
<path stroke="#3c4146" vector-effect="non-scaling-stroke" d="
  M 409.87 248.12
  C 394.26 252.31 384.30 255.37 380.01 257.30
  C 378.65 257.92 377.68 258.25 377.10 258.28"
/>
<path stroke="#72797f" vector-effect="non-scaling-stroke" d="
  M 431.68 256.27
  C 431.12 256.62 430.63 256.96 430.20 257.28
  C 429.71 257.65 429.20 257.95 428.65 258.18
  C 427.09 258.81 425.44 259.04 423.70 258.86
  C 423.40 258.83 423.11 258.87 422.84 258.99
  C 422.43 259.16 422.00 259.27 421.54 259.32
  C 421.19 259.36 420.88 259.48 420.59 259.68
  C 419.80 260.25 419.10 260.56 418.49 260.61"
/>
<path stroke="#4c5157" vector-effect="non-scaling-stroke" d="
  M 418.49 260.61
  L 417.56 258.63"
/>
<path stroke="#575c63" vector-effect="non-scaling-stroke" d="
  M 417.56 258.63
  C 416.05 254.92 413.48 251.41 409.87 248.12"
/>
<path stroke="#6b7177" vector-effect="non-scaling-stroke" d="
  M 409.87 248.12
  C 407.97 241.87 405.23 235.65 401.64 229.44"
/>
<path stroke="#4c5157" vector-effect="non-scaling-stroke" d="
  M 401.64 229.44
  L 397.58 221.61"
/>
<path stroke="#585d62" vector-effect="non-scaling-stroke" d="
  M 451.08 280.28
  C 449.75 281.06 448.35 281.56 446.86 281.77
  C 446.03 281.89 444.98 282.12 443.73 282.45
  C 442.88 282.68 441.82 282.87 440.53 283.02
  C 439.09 283.19 436.50 284.10 432.75 285.76"
/>
<path stroke="#393d42" vector-effect="non-scaling-stroke" d="
  M 425.52 274.91
  L 418.49 260.61"
/>
</g>
<path fill="#eeefe7" d="
  M 339.72 187.67
  L 310.49 169.36
  C 308.45 167.13 306.54 164.55 304.75 161.63
  C 303.27 159.20 301.80 157.20 300.33 155.63
  C 293.72 148.55 287.22 141.46 280.83 134.35
  C 278.02 131.21 274.94 128.31 272.09 125.28
  C 271.72 124.89 271.60 124.96 271.73 125.48
  L 279.62 157.12
  C 279.79 157.79 279.58 157.93 279.01 157.54
  C 276.84 156.07 274.72 154.83 272.65 153.84
  C 271.92 153.49 271.81 153.63 272.31 154.26
  L 290.72 177.51
  L 337.47 236.17
  L 316.09 223.09
  C 305.99 216.60 295.74 210.03 285.33 203.37
  C 283.89 202.44 282.82 201.38 282.13 200.19
  C 280.27 196.96 278.29 193.86 276.19 190.87
  C 275.75 190.24 275.17 189.80 274.44 189.55
  L 264.10 186.02
  C 263.75 185.90 263.52 185.66 263.41 185.31
  L 260.55 176.18
  L 250.46 173.06
  C 250.31 158.09 247.33 143.82 241.51 130.26
  C 241.32 129.90 241.48 129.40 242.00 128.75
  C 245.91 123.90 249.77 119.01 253.58 114.06
  C 254.53 112.83 255.16 111.46 255.47 109.94
  C 256.91 102.92 258.33 95.81 259.73 88.62
  C 262.53 86.97 264.70 87.36 266.23 89.77
  C 272.69 99.94 279.11 110.12 285.50 120.31
  C 286.37 121.69 287.99 123.26 289.43 124.01
  C 293.82 126.32 299.11 128.97 301.87 133.37
  C 307.78 142.77 314.00 152.56 320.51 162.75
  C 324.36 168.78 331.24 170.44 335.21 176.23
  C 337.23 179.17 338.73 182.98 339.72 187.67
  Z"
/>
<path fill="#12151a" d="
  M 259.73 88.62
  C 258.33 95.81 256.91 102.92 255.47 109.94
  C 255.16 111.46 254.53 112.83 253.58 114.06
  C 249.77 119.01 245.91 123.90 242.00 128.75
  C 241.48 129.40 241.32 129.90 241.51 130.26
  L 240.62 130.83
  C 240.35 131.00 240.12 131.21 239.93 131.48
  C 230.24 144.96 221.05 157.54 212.36 169.21
  C 201.75 183.46 192.72 196.09 182.89 209.13
  C 173.03 222.20 163.18 235.45 153.35 248.86
  C 151.66 251.17 149.85 253.44 147.93 255.67
  C 146.59 257.24 145.41 258.79 144.39 260.34
  C 143.45 261.78 142.63 263.35 141.93 265.06
  C 141.43 266.27 141.43 267.56 141.92 268.95
  C 142.31 270.05 142.16 271.06 141.48 271.97
  C 135.22 280.36 128.98 288.81 122.77 297.32
  C 121.51 299.05 121.84 299.45 123.77 298.52
  C 126.86 297.04 130.00 294.98 133.19 293.32
  C 139.38 290.09 145.97 286.65 152.95 283.00
  L 152.84 289.53
  L 149.40 301.49
  C 149.33 301.74 149.60 301.95 149.82 301.82
  C 153.71 299.58 157.25 297.67 160.42 296.10
  C 160.95 295.84 161.52 295.76 162.13 295.87
  C 162.56 295.94 162.78 296.42 162.55 296.79
  C 161.61 298.30 160.51 299.80 159.24 301.27
  C 149.84 312.16 140.37 323.04 130.84 333.90
  C 130.67 334.09 130.75 334.38 130.98 334.48
  C 136.60 336.76 142.10 338.98 147.48 341.15
  C 149.90 342.13 154.12 342.99 156.50 341.29
  C 167.41 333.51 178.39 325.70 189.44 317.85
  L 203.52 308.17
  L 272.17 260.88
  L 281.59 254.54
  L 289.82 249.12
  C 290.83 248.84 291.82 248.46 292.80 247.99
  C 293.09 247.86 293.26 248.04 293.32 248.54
  L 293.43 254.79
  L 274.02 280.14
  C 273.09 281.35 273.29 281.56 274.60 280.79
  C 275.40 280.32 276.16 279.75 276.88 279.10
  C 278.80 277.38 279.21 277.68 278.10 280.01
  L 262.13 313.55
  C 262.04 313.74 262.20 313.95 262.41 313.91
  C 262.77 313.84 263.09 313.67 263.37 313.42
  C 266.55 310.53 269.82 307.56 273.28 304.96
  C 281.53 298.75 289.60 292.33 297.50 285.70
  C 299.02 284.43 299.37 284.70 298.56 286.51
  L 291.70 301.74
  C 291.30 302.64 291.54 302.87 292.42 302.43
  L 306.29 295.50
  L 310.57 297.06
  C 311.04 297.23 311.33 297.71 311.25 298.21
  L 309.86 307.17
  L 304.34 323.52
  C 304.09 324.25 304.29 324.40 304.92 323.97
  L 319.23 314.23
  C 320.66 315.02 321.51 315.75 321.76 316.44
  L 321.25 325.53
  L 315.21 336.77
  C 315.00 337.17 315.32 337.64 315.76 337.58
  L 330.51 335.63
  L 335.81 338.98
  C 336.27 339.27 336.51 339.80 336.43 340.33
  C 336.12 342.44 335.82 344.53 335.55 346.58
  C 335.41 347.64 335.79 348.72 336.68 349.82
  C 337.68 351.07 340.04 354.20 343.75 359.22
  C 342.52 359.39 340.86 359.51 338.75 359.57
  C 316.50 360.22 294.60 358.08 273.07 353.16
  C 264.06 351.11 255.39 348.28 247.04 344.67
  C 245.59 344.04 244.10 343.73 242.57 343.73
  C 176.60 343.67 111.17 343.70 46.30 343.83
  C 45.49 343.83 44.70 343.78 43.92 343.69
  C 43.88 343.69 43.86 343.63 43.89 343.60
  L 120.22 260.87
  C 120.65 260.41 121.12 260.36 121.63 260.71
  C 123.78 262.17 125.41 264.21 128.02 264.85
  C 131.20 265.63 134.28 266.37 137.25 267.08
  C 137.90 267.23 138.58 266.95 138.94 266.39
  C 144.75 257.23 150.39 248.21 155.86 239.34
  C 156.63 238.10 157.23 236.79 157.66 235.42
  C 158.99 231.21 160.26 226.89 161.45 222.45
  C 161.73 221.43 162.25 220.50 162.98 219.74
  L 179.00 203.04
  C 179.63 202.38 180.10 201.58 180.38 200.71
  L 183.19 191.74
  C 183.46 190.89 183.91 190.17 184.56 189.57
  L 205.36 170.25
  C 206.19 169.48 206.80 168.55 207.17 167.47
  C 208.40 163.92 209.54 160.50 210.59 157.20
  C 212.39 151.56 216.65 146.78 220.06 142.00
  C 220.77 141.01 221.27 139.89 221.54 138.71
  C 222.46 134.70 223.31 130.85 224.08 127.15
  C 224.35 125.82 224.97 124.66 225.93 123.68
  C 237.17 112.15 248.44 100.47 259.73 88.62
  Z"
/>
<path fill="#858c94" d="
  M 310.49 169.36
  C 310.40 169.37 310.31 169.40 310.22 169.45
  C 309.95 169.59 309.81 169.90 309.90 170.19
  C 309.95 170.38 309.95 170.56 309.90 170.74
  C 309.79 171.07 309.57 171.27 309.23 171.34
  C 307.31 171.74 305.49 172.51 303.78 173.65
  L 299.50 169.32
  C 299.18 168.99 299.06 169.06 299.13 169.51
  L 301.34 183.50
  C 301.41 183.94 301.26 184.04 300.88 183.81
  L 290.72 177.51
  L 272.31 154.26
  C 271.81 153.63 271.92 153.49 272.65 153.84
  C 274.72 154.83 276.84 156.07 279.01 157.54
  C 279.58 157.93 279.79 157.79 279.62 157.12
  L 271.73 125.48
  C 271.60 124.96 271.72 124.89 272.09 125.28
  C 274.94 128.31 278.02 131.21 280.83 134.35
  C 287.22 141.46 293.72 148.55 300.33 155.63
  C 301.80 157.20 303.27 159.20 304.75 161.63
  C 306.54 164.55 308.45 167.13 310.49 169.36
  Z"
/>
<path fill="#282c31" d="
  M 241.51 130.26
  C 247.33 143.82 250.31 158.09 250.46 173.06
  C 250.59 178.44 250.25 183.86 249.42 189.33
  L 245.81 204.92
  C 241.06 200.71 236.48 196.55 232.05 192.45
  C 231.59 192.02 231.26 192.13 231.06 192.76
  C 230.48 192.42 230.05 192.38 229.78 192.63
  C 212.98 208.33 196.25 224.23 179.59 240.33
  C 178.50 241.39 177.35 242.50 176.14 243.67
  C 168.13 251.38 160.14 259.21 152.18 267.14
  C 151.49 267.83 150.79 268.38 150.06 268.81
  C 149.35 269.23 148.54 269.67 147.65 270.13
  L 144.54 269.80
  C 143.05 269.64 142.88 270.03 144.04 270.98
  C 148.29 274.47 151.26 278.47 152.95 283.00
  C 145.97 286.65 139.38 290.09 133.19 293.32
  C 130.00 294.98 126.86 297.04 123.77 298.52
  C 121.84 299.45 121.51 299.05 122.77 297.32
  C 128.98 288.81 135.22 280.36 141.48 271.97
  C 142.16 271.06 142.31 270.05 141.92 268.95
  C 141.43 267.56 141.43 266.27 141.93 265.06
  C 142.63 263.35 143.45 261.78 144.39 260.34
  C 145.41 258.79 146.59 257.24 147.93 255.67
  C 149.85 253.44 151.66 251.17 153.35 248.86
  C 163.18 235.45 173.03 222.20 182.89 209.13
  C 192.72 196.09 201.75 183.46 212.36 169.21
  C 221.05 157.54 230.24 144.96 239.93 131.48
  C 240.12 131.21 240.35 131.00 240.62 130.83
  L 241.51 130.26
  Z"
/>
<path fill="#282c31" d="
  M 303.78 173.65
  L 327.21 197.55
  L 359.35 229.13
  C 359.58 229.34 359.70 229.30 359.73 228.99
  L 360.69 218.00
  L 374.70 234.58
  C 375.02 234.78 375.28 235.02 375.49 235.31
  C 375.68 235.57 375.92 235.76 376.22 235.87
  C 377.30 236.27 378.25 236.91 379.08 237.80
  C 379.38 238.13 379.41 238.47 379.18 238.84
  C 375.17 245.13 370.36 250.77 364.74 255.77
  C 362.55 257.72 360.43 259.67 358.38 261.64
  C 353.18 266.61 347.96 271.62 342.72 276.66
  C 338.37 272.91 334.26 269.55 330.41 266.59
  C 327.72 264.52 325.44 263.40 323.57 263.22
  C 320.52 262.92 317.06 263.42 313.21 264.73
  C 312.73 264.89 312.20 264.74 311.88 264.34
  L 310.24 262.28
  C 305.29 255.33 301.33 250.14 294.17 247.38
  C 293.77 247.23 293.53 247.36 293.46 247.78
  L 293.32 248.54
  C 293.26 248.04 293.09 247.86 292.80 247.99
  C 291.82 248.46 290.83 248.84 289.82 249.12
  C 289.69 248.75 289.60 248.57 289.54 248.57
  C 284.66 241.65 279.79 234.72 274.94 227.78
  C 274.30 226.86 273.52 226.08 272.61 225.43
  C 270.11 223.66 267.89 221.98 265.95 220.41
  L 261.98 199.91
  C 261.80 198.97 262.06 198.82 262.77 199.46
  L 303.52 236.40
  L 354.44 261.41
  C 356.07 262.21 356.35 261.88 355.28 260.41
  L 337.47 236.17
  L 290.72 177.51
  L 300.88 183.81
  C 301.26 184.04 301.41 183.94 301.34 183.50
  L 299.13 169.51
  C 299.06 169.06 299.18 168.99 299.50 169.32
  L 303.78 173.65
  Z"
/>
<path fill="#5f656a" d="
  M 310.49 169.36
  L 339.72 187.67
  L 341.15 189.12
  C 339.87 191.29 338.03 192.65 335.63 193.20
  C 335.17 193.31 334.84 193.70 334.82 194.17
  C 334.80 194.63 334.59 194.80 334.19 194.67
  C 333.81 194.55 333.49 194.65 333.24 194.96
  C 332.57 195.81 331.69 196.20 330.60 196.13
  C 330.41 196.12 330.22 196.15 330.04 196.24
  L 327.21 197.55
  L 303.78 173.65
  C 305.49 172.51 307.31 171.74 309.23 171.34
  C 309.57 171.27 309.79 171.07 309.90 170.74
  C 309.95 170.56 309.95 170.38 309.90 170.19
  C 309.81 169.90 309.95 169.59 310.22 169.45
  C 310.31 169.40 310.40 169.37 310.49 169.36
  Z"
/>
<path fill="#858c94" d="
  M 250.46 173.06
  L 260.55 176.18
  L 259.61 176.20
  C 259.19 176.20 259.08 176.38 259.28 176.75
  C 259.91 177.88 260.13 179.15 259.96 180.58
  C 259.93 180.87 259.99 181.13 260.16 181.36
  C 260.46 181.79 260.62 182.28 260.63 182.83
  C 260.64 183.13 260.50 183.26 260.21 183.21
  C 259.22 183.06 258.47 183.46 257.94 184.40
  C 257.69 184.85 257.31 185.01 256.82 184.88
  C 256.03 184.68 255.41 184.90 254.96 185.54
  C 254.68 185.94 254.30 186.14 253.82 186.13
  C 253.12 186.12 252.46 186.24 251.83 186.51
  C 251.52 186.64 251.38 186.87 251.39 187.20
  C 251.44 188.53 250.79 189.24 249.42 189.33
  C 250.25 183.86 250.59 178.44 250.46 173.06
  Z"
/>
<path fill="#5f656a" d="
  M 260.55 176.18
  L 263.41 185.31
  C 263.52 185.66 263.75 185.90 264.10 186.02
  L 274.44 189.55
  C 275.17 189.80 275.75 190.24 276.19 190.87
  C 278.29 193.86 280.27 196.96 282.13 200.19
  C 282.82 201.38 283.89 202.44 285.33 203.37
  C 295.74 210.03 305.99 216.60 316.09 223.09
  L 320.11 228.13
  C 320.20 228.23 320.23 228.35 320.22 228.49
  C 320.20 228.62 320.13 228.70 320.00 228.72
  C 319.58 228.79 319.53 228.96 319.85 229.23
  C 320.00 229.36 320.04 229.53 319.97 229.72
  C 319.87 230.00 319.59 230.16 319.30 230.10
  C 318.73 229.99 318.29 230.12 317.98 230.51
  C 317.93 230.58 317.86 230.65 317.79 230.70
  C 317.28 231.06 317.00 231.06 316.96 230.70
  C 316.89 230.09 316.64 230.00 316.21 230.44
  C 315.13 231.54 314.02 232.56 312.87 233.49
  C 312.66 233.67 312.43 233.80 312.16 233.87
  L 303.52 236.40
  L 262.77 199.46
  C 262.06 198.82 261.80 198.97 261.98 199.91
  L 265.95 220.41
  C 262.09 218.48 258.92 216.53 256.44 214.57
  C 252.99 211.84 249.45 208.63 245.81 204.92
  L 249.42 189.33
  C 250.79 189.24 251.44 188.53 251.39 187.20
  C 251.38 186.87 251.52 186.64 251.83 186.51
  C 252.46 186.24 253.12 186.12 253.82 186.13
  C 254.30 186.14 254.68 185.94 254.96 185.54
  C 255.41 184.90 256.03 184.68 256.82 184.88
  C 257.31 185.01 257.69 184.85 257.94 184.40
  C 258.47 183.46 259.22 183.06 260.21 183.21
  C 260.50 183.26 260.64 183.13 260.63 182.83
  C 260.62 182.28 260.46 181.79 260.16 181.36
  C 259.99 181.13 259.93 180.87 259.96 180.58
  C 260.13 179.15 259.91 177.88 259.28 176.75
  C 259.08 176.38 259.19 176.20 259.61 176.20
  L 260.55 176.18
  Z"
/>
<path fill="#50555a" d="
  M 341.15 189.12
  L 346.83 205.05
  C 346.94 205.36 347.12 205.63 347.37 205.86
  L 360.69 218.00
  L 359.73 228.99
  C 359.70 229.30 359.58 229.34 359.35 229.13
  L 327.21 197.55
  L 330.04 196.24
  C 330.22 196.15 330.41 196.12 330.60 196.13
  C 331.69 196.20 332.57 195.81 333.24 194.96
  C 333.49 194.65 333.81 194.55 334.19 194.67
  C 334.59 194.80 334.80 194.63 334.82 194.17
  C 334.84 193.70 335.17 193.31 335.63 193.20
  C 338.03 192.65 339.87 191.29 341.15 189.12
  Z"
/>
<path fill="#aeb6be" d="
  M 245.81 204.92
  C 249.45 208.63 252.99 211.84 256.44 214.57
  C 258.92 216.53 262.09 218.48 265.95 220.41
  C 267.89 221.98 270.11 223.66 272.61 225.43
  C 273.52 226.08 274.30 226.86 274.94 227.78
  C 279.79 234.72 284.66 241.65 289.54 248.57
  C 289.58 248.66 289.58 248.74 289.53 248.82
  C 289.49 248.89 289.43 248.92 289.34 248.91
  C 285.49 248.30 281.88 247.19 278.53 245.59
  C 277.48 245.08 276.44 244.58 275.41 244.08
  C 275.10 243.93 274.79 243.93 274.48 244.09
  L 269.80 246.47
  C 262.33 242.10 254.81 237.79 247.25 233.56
  C 246.30 233.03 245.51 232.38 244.87 231.60
  C 241.27 227.20 237.41 222.73 233.30 218.19
  C 232.95 217.80 232.74 217.87 232.69 218.39
  C 232.36 221.68 231.08 224.86 228.84 227.94
  C 227.72 229.49 225.94 230.98 223.51 232.43
  C 217.60 235.94 211.74 239.63 205.92 243.48
  L 207.35 232.41
  C 210.47 230.37 213.39 228.08 216.11 225.54
  C 218.21 223.59 219.93 221.40 221.28 218.97
  C 222.65 216.52 223.84 213.97 224.83 211.33
  C 227.13 205.19 229.21 199.00 231.06 192.76
  C 231.26 192.13 231.59 192.02 232.05 192.45
  C 236.48 196.55 241.06 200.71 245.81 204.92
  Z"
/>
<path fill="#12151a" d="
  M 231.06 192.76
  C 229.21 199.00 227.13 205.19 224.83 211.33
  C 223.84 213.97 222.65 216.52 221.28 218.97
  C 219.93 221.40 218.21 223.59 216.11 225.54
  C 213.39 228.08 210.47 230.37 207.35 232.41
  C 205.24 233.21 203.85 234.49 203.19 236.24
  C 195.76 256.05 188.90 273.69 182.60 289.18
  C 178.96 286.02 176.16 282.71 174.20 279.25
  C 173.85 278.62 173.45 278.19 173.00 277.95
  C 169.53 276.13 165.86 274.51 161.84 273.50
  C 157.29 272.35 152.56 271.23 147.65 270.13
  C 148.54 269.67 149.35 269.23 150.06 268.81
  C 150.79 268.38 151.49 267.83 152.18 267.14
  C 160.14 259.21 168.13 251.38 176.14 243.67
  C 177.35 242.50 178.50 241.39 179.59 240.33
  C 196.25 224.23 212.98 208.33 229.78 192.63
  C 230.05 192.38 230.48 192.42 231.06 192.76
  Z"
/>
<path fill="#50555a" d="
  M 269.80 246.47
  L 281.59 254.54
  L 272.17 260.88
  L 252.92 245.08
  C 252.53 244.76 252.33 244.85 252.32 245.36
  C 252.31 247.00 252.44 248.66 252.69 250.34
  C 253.64 256.58 254.46 262.80 255.15 269.01
  C 255.44 271.61 254.82 271.85 253.30 269.72
  L 231.61 239.38
  C 231.23 238.85 230.46 238.80 230.02 239.28
  L 226.83 242.75
  C 226.42 243.20 226.24 243.82 226.36 244.42
  C 228.17 253.30 229.76 262.07 231.14 270.72
  C 231.17 270.91 231.22 271.08 231.28 271.25
  C 231.35 271.42 231.34 271.58 231.25 271.73
  C 231.13 271.94 230.83 271.93 230.72 271.72
  C 226.58 263.98 222.29 256.24 217.85 248.49
  C 217.80 248.40 217.73 248.35 217.62 248.32
  C 217.55 248.30 217.51 248.28 217.48 248.25
  C 217.33 248.07 217.04 248.15 217.01 248.38
  C 215.58 257.61 214.31 266.65 213.20 275.50
  C 213.12 276.17 212.97 276.19 212.76 275.54
  C 212.49 274.70 212.24 273.95 211.76 273.20
  C 208.45 268.02 206.44 263.33 205.73 259.14
  C 205.35 256.87 204.90 254.57 204.38 252.26
  C 204.03 250.68 204.54 247.75 205.92 243.48
  C 211.74 239.63 217.60 235.94 223.51 232.43
  C 225.94 230.98 227.72 229.49 228.84 227.94
  C 231.08 224.86 232.36 221.68 232.69 218.39
  C 232.74 217.87 232.95 217.80 233.30 218.19
  C 237.41 222.73 241.27 227.20 244.87 231.60
  C 245.51 232.38 246.30 233.03 247.25 233.56
  C 254.81 237.79 262.33 242.10 269.80 246.47
  Z"
/>
<path fill="#858c94" d="
  M 431.68 256.27
  C 431.12 256.62 430.63 256.96 430.20 257.28
  C 429.71 257.65 429.20 257.95 428.65 258.18
  C 427.09 258.81 425.44 259.04 423.70 258.86
  C 423.40 258.83 423.11 258.87 422.84 258.99
  C 422.43 259.16 422.00 259.27 421.54 259.32
  C 421.19 259.36 420.88 259.48 420.59 259.68
  C 419.80 260.25 419.10 260.56 418.49 260.61
  L 417.56 258.63
  C 416.05 254.92 413.48 251.41 409.87 248.12
  C 407.97 241.87 405.23 235.65 401.64 229.44
  L 397.58 221.61
  L 401.99 220.62
  C 402.58 220.49 403.19 220.71 403.57 221.18
  L 431.68 256.27
  Z"
/>
<path fill="#12151a" d="
  M 397.58 221.61
  L 401.64 229.44
  L 377.10 258.28
  L 346.65 280.00
  L 342.72 276.66
  C 347.96 271.62 353.18 266.61 358.38 261.64
  C 360.43 259.67 362.55 257.72 364.74 255.77
  C 370.36 250.77 375.17 245.13 379.18 238.84
  C 379.41 238.47 379.38 238.13 379.08 237.80
  C 378.25 236.91 377.30 236.27 376.22 235.87
  C 375.92 235.76 375.68 235.57 375.49 235.31
  C 375.28 235.02 375.02 234.78 374.70 234.58
  C 375.17 234.61 375.51 234.55 375.74 234.42
  C 383.04 230.11 390.32 225.84 397.58 221.61
  Z"
/>
<path fill="#50555a" d="
  M 316.09 223.09
  L 337.47 236.17
  L 355.28 260.41
  C 356.35 261.88 356.07 262.21 354.44 261.41
  L 303.52 236.40
  L 312.16 233.87
  C 312.43 233.80 312.66 233.67 312.87 233.49
  C 314.02 232.56 315.13 231.54 316.21 230.44
  C 316.64 230.00 316.89 230.09 316.96 230.70
  C 317.00 231.06 317.28 231.06 317.79 230.70
  C 317.86 230.65 317.93 230.58 317.98 230.51
  C 318.29 230.12 318.73 229.99 319.30 230.10
  C 319.59 230.16 319.87 230.00 319.97 229.72
  C 320.04 229.53 320.00 229.36 319.85 229.23
  C 319.53 228.96 319.58 228.79 320.00 228.72
  C 320.13 228.70 320.20 228.62 320.22 228.49
  C 320.23 228.35 320.20 228.23 320.11 228.13
  L 316.09 223.09
  Z"
/>
<path fill="#50555a" d="
  M 401.64 229.44
  C 405.23 235.65 407.97 241.87 409.87 248.12
  C 394.26 252.31 384.30 255.37 380.01 257.30
  C 378.65 257.92 377.68 258.25 377.10 258.28
  L 401.64 229.44
  Z"
/>
<path fill="#282c31" d="
  M 207.35 232.41
  L 205.92 243.48
  C 204.54 247.75 204.03 250.68 204.38 252.26
  C 204.90 254.57 205.35 256.87 205.73 259.14
  C 206.44 263.33 208.45 268.02 211.76 273.20
  C 212.24 273.95 212.49 274.70 212.76 275.54
  C 212.97 276.19 213.12 276.17 213.20 275.50
  C 214.31 266.65 215.58 257.61 217.01 248.38
  C 217.04 248.15 217.33 248.07 217.48 248.25
  C 217.51 248.28 217.55 248.30 217.62 248.32
  C 217.73 248.35 217.80 248.40 217.85 248.49
  C 222.29 256.24 226.58 263.98 230.72 271.72
  C 230.83 271.93 231.13 271.94 231.25 271.73
  C 231.34 271.58 231.35 271.42 231.28 271.25
  C 231.22 271.08 231.17 270.91 231.14 270.72
  C 229.76 262.07 228.17 253.30 226.36 244.42
  C 226.24 243.82 226.42 243.20 226.83 242.75
  L 230.02 239.28
  C 230.46 238.80 231.23 238.85 231.61 239.38
  L 253.30 269.72
  C 254.82 271.85 255.44 271.61 255.15 269.01
  C 254.46 262.80 253.64 256.58 252.69 250.34
  C 252.44 248.66 252.31 247.00 252.32 245.36
  C 252.33 244.85 252.53 244.76 252.92 245.08
  L 272.17 260.88
  L 203.52 308.17
  L 182.60 289.18
  C 188.90 273.69 195.76 256.05 203.19 236.24
  C 203.85 234.49 205.24 233.21 207.35 232.41
  Z"
/>
<path fill="#858c94" d="
  M 289.54 248.57
  C 289.60 248.57 289.69 248.75 289.82 249.12
  L 281.59 254.54
  L 269.80 246.47
  L 274.48 244.09
  C 274.79 243.93 275.10 243.93 275.41 244.08
  C 276.44 244.58 277.48 245.08 278.53 245.59
  C 281.88 247.19 285.49 248.30 289.34 248.91
  C 289.43 248.92 289.49 248.89 289.53 248.82
  C 289.58 248.74 289.58 248.66 289.54 248.57
  Z"
/>
<path fill="#aeb6be" d="
  M 310.24 262.28
  C 310.33 262.62 310.21 262.86 309.89 263.01
  C 309.57 263.16 309.34 263.07 309.19 262.74
  C 309.11 262.55 308.97 262.48 308.77 262.53
  C 307.83 262.73 306.95 263.07 306.17 263.55
  C 304.31 264.68 302.40 265.41 300.44 265.76
  C 299.36 265.95 298.41 266.40 297.59 267.09
  C 296.76 267.81 295.99 268.66 295.29 269.65
  L 293.43 254.79
  L 293.32 248.54
  L 293.46 247.78
  C 293.53 247.36 293.77 247.23 294.17 247.38
  C 301.33 250.14 305.29 255.33 310.24 262.28
  Z"
/>
<path fill="#282c31" d="
  M 409.87 248.12
  C 413.48 251.41 416.05 254.92 417.56 258.63
  C 417.29 258.64 417.07 258.65 416.91 258.67
  C 416.71 258.70 416.58 258.81 416.51 259.00
  C 411.54 272.46 406.64 285.83 401.83 299.12
  C 401.77 299.27 401.97 299.39 402.08 299.27
  L 425.52 274.91
  C 426.95 276.20 428.72 277.62 430.85 279.17
  C 432.65 280.49 432.49 282.78 432.75 285.76
  L 438.60 327.91
  C 438.65 328.30 438.85 328.39 439.19 328.18
  C 444.76 324.65 450.22 321.24 455.57 317.97
  C 456.72 317.27 457.89 316.76 459.09 316.44
  C 459.44 316.35 459.76 316.39 460.07 316.58
  L 465.45 319.82
  C 465.76 320.01 466.09 320.10 466.44 320.09
  C 467.45 320.07 468.45 319.89 469.42 319.55
  C 470.80 319.07 472.11 319.53 473.62 319.05
  C 475.11 318.58 476.60 318.14 478.07 317.72
  C 478.39 317.63 478.65 317.47 478.84 317.22
  C 478.90 317.15 478.91 317.08 478.88 317.00
  C 478.67 316.43 478.86 316.25 479.43 316.47
  C 480.02 316.70 480.30 316.62 480.28 316.24
  L 502.19 343.08
  C 502.40 343.33 502.22 343.72 501.89 343.72
  L 438.28 343.68
  L 389.89 312.55
  C 381.51 307.14 373.22 301.75 365.01 296.36
  C 362.68 294.83 360.42 292.96 358.22 290.75
  C 354.42 286.92 350.56 283.34 346.65 280.00
  L 377.10 258.28
  C 377.68 258.25 378.65 257.92 380.01 257.30
  C 384.30 255.37 394.26 252.31 409.87 248.12
  Z"
/>
<path fill="#282c31" d="
  M 293.43 254.79
  L 295.29 269.65
  L 298.57 278.80
  C 300.44 285.44 303.01 291.01 306.29 295.50
  L 292.42 302.43
  C 291.54 302.87 291.30 302.64 291.70 301.74
  L 298.56 286.51
  C 299.37 284.70 299.02 284.43 297.50 285.70
  C 289.60 292.33 281.53 298.75 273.28 304.96
  C 269.82 307.56 266.55 310.53 263.37 313.42
  C 263.09 313.67 262.77 313.84 262.41 313.91
  C 262.20 313.95 262.04 313.74 262.13 313.55
  L 278.10 280.01
  C 279.21 277.68 278.80 277.38 276.88 279.10
  C 276.16 279.75 275.40 280.32 274.60 280.79
  C 273.29 281.56 273.09 281.35 274.02 280.14
  L 293.43 254.79
  Z"
/>
<path fill="#5f656a" d="
  M 431.68 256.27
  L 451.08 280.28
  C 449.75 281.06 448.35 281.56 446.86 281.77
  C 446.03 281.89 444.98 282.12 443.73 282.45
  C 442.88 282.68 441.82 282.87 440.53 283.02
  C 439.09 283.19 436.50 284.10 432.75 285.76
  C 432.49 282.78 432.65 280.49 430.85 279.17
  C 428.72 277.62 426.95 276.20 425.52 274.91
  L 418.49 260.61
  C 419.10 260.56 419.80 260.25 420.59 259.68
  C 420.88 259.48 421.19 259.36 421.54 259.32
  C 422.00 259.27 422.43 259.16 422.84 258.99
  C 423.11 258.87 423.40 258.83 423.70 258.86
  C 425.44 259.04 427.09 258.81 428.65 258.18
  C 429.20 257.95 429.71 257.65 430.20 257.28
  C 430.63 256.96 431.12 256.62 431.68 256.27
  Z"
/>
<path fill="#12151a" d="
  M 417.56 258.63
  L 418.49 260.61
  L 425.52 274.91
  L 402.08 299.27
  C 401.97 299.39 401.77 299.27 401.83 299.12
  C 406.64 285.83 411.54 272.46 416.51 259.00
  C 416.58 258.81 416.71 258.70 416.91 258.67
  C 417.07 258.65 417.29 258.64 417.56 258.63
  Z"
/>
<path fill="#858c94" d="
  M 310.24 262.28
  L 311.88 264.34
  C 312.20 264.74 312.73 264.89 313.21 264.73
  C 317.06 263.42 320.52 262.92 323.57 263.22
  C 325.44 263.40 327.72 264.52 330.41 266.59
  C 334.26 269.55 338.37 272.91 342.72 276.66
  L 346.65 280.00
  C 350.56 283.34 354.42 286.92 358.22 290.75
  C 360.42 292.96 362.68 294.83 365.01 296.36
  C 373.22 301.75 381.51 307.14 389.89 312.55
  L 376.11 309.09
  C 366.46 306.23 356.84 303.41 347.25 300.62
  C 343.50 299.53 340.46 298.43 338.15 297.32
  C 325.18 291.07 311.99 284.90 298.57 278.80
  L 295.29 269.65
  C 295.99 268.66 296.76 267.81 297.59 267.09
  C 298.41 266.40 299.36 265.95 300.44 265.76
  C 302.40 265.41 304.31 264.68 306.17 263.55
  C 306.95 263.07 307.83 262.73 308.77 262.53
  C 308.97 262.48 309.11 262.55 309.19 262.74
  C 309.34 263.07 309.57 263.16 309.89 263.01
  C 310.21 262.86 310.33 262.62 310.24 262.28
  Z"
/>
<path fill="#5f656a" d="
  M 147.65 270.13
  C 152.56 271.23 157.29 272.35 161.84 273.50
  C 165.86 274.51 169.53 276.13 173.00 277.95
  C 173.45 278.19 173.85 278.62 174.20 279.25
  C 176.16 282.71 178.96 286.02 182.60 289.18
  L 203.52 308.17
  L 189.44 317.85
  L 177.31 316.31
  C 176.26 316.18 175.33 315.78 174.52 315.11
  C 172.89 313.76 171.26 312.33 169.65 310.80
  C 168.86 310.05 168.48 309.11 168.49 307.97
  C 168.53 305.14 168.51 302.35 168.43 299.60
  C 168.42 299.14 168.18 298.71 167.80 298.46
  C 165.06 296.66 163.09 294.64 159.94 293.17
  C 157.47 292.02 155.10 290.81 152.84 289.53
  L 152.95 283.00
  C 151.26 278.47 148.29 274.47 144.04 270.98
  C 142.88 270.03 143.05 269.64 144.54 269.80
  L 147.65 270.13
  Z"
/>
<path fill="#5f656a" d="
  M 298.57 278.80
  C 311.99 284.90 325.18 291.07 338.15 297.32
  C 340.46 298.43 343.50 299.53 347.25 300.62
  C 356.84 303.41 366.46 306.23 376.11 309.09
  L 370.15 309.38
  C 369.82 309.39 369.53 309.50 369.27 309.71
  C 369.09 309.86 368.89 309.95 368.67 309.98
  C 366.90 310.21 365.03 310.51 363.06 310.87
  C 362.71 310.94 362.43 311.11 362.21 311.39
  C 361.73 311.99 361.23 312.02 360.70 311.47
  C 360.56 311.32 360.42 311.32 360.29 311.48
  C 359.85 311.99 359.26 312.22 358.52 312.17
  C 356.85 312.05 355.24 312.12 353.69 312.38
  C 353.28 312.45 353.10 312.69 353.13 313.10
  C 353.14 313.25 353.12 313.40 353.07 313.54
  C 352.93 313.93 352.65 314.12 352.24 314.12
  L 343.74 314.12
  C 343.43 314.12 343.21 314.27 343.09 314.56
  C 343.02 314.73 342.91 314.87 342.74 314.96
  C 342.41 315.15 342.17 315.07 342.02 314.71
  C 341.79 314.18 341.34 313.97 340.65 314.08
  C 340.34 314.13 340.15 314.31 340.06 314.61
  C 340.03 314.74 339.96 314.84 339.85 314.91
  C 339.63 315.06 339.39 315.13 339.14 315.13
  C 337.40 315.13 335.59 315.12 333.72 315.11
  C 333.34 315.11 333.11 315.29 333.03 315.66
  C 333.01 315.75 332.96 315.83 332.89 315.88
  C 332.64 316.05 332.36 316.14 332.06 316.14
  C 331.35 316.13 330.65 316.12 329.94 316.09
  C 329.65 316.08 329.38 316.21 329.21 316.45
  C 328.73 317.14 328.08 317.33 327.26 317.04
  C 327.03 316.96 326.80 316.94 326.57 316.99
  L 323.59 317.64
  C 323.30 317.70 323.04 317.65 322.80 317.50
  C 322.40 317.25 322.05 316.89 321.76 316.44
  C 321.51 315.75 320.66 315.02 319.23 314.23
  L 309.86 307.17
  L 311.25 298.21
  C 311.33 297.71 311.04 297.23 310.57 297.06
  L 306.29 295.50
  C 303.01 291.01 300.44 285.44 298.57 278.80
  Z"
/>
<path fill="#50555a" d="
  M 451.08 280.28
  L 480.28 316.24
  C 480.30 316.62 480.02 316.70 479.43 316.47
  C 478.86 316.25 478.67 316.43 478.88 317.00
  C 478.91 317.08 478.90 317.15 478.84 317.22
  C 478.65 317.47 478.39 317.63 478.07 317.72
  C 476.60 318.14 475.11 318.58 473.62 319.05
  C 472.11 319.53 470.80 319.07 469.42 319.55
  C 468.45 319.89 467.45 320.07 466.44 320.09
  C 466.09 320.10 465.76 320.01 465.45 319.82
  L 460.07 316.58
  C 459.76 316.39 459.44 316.35 459.09 316.44
  C 457.89 316.76 456.72 317.27 455.57 317.97
  C 450.22 321.24 444.76 324.65 439.19 328.18
  C 438.85 328.39 438.65 328.30 438.60 327.91
  L 432.75 285.76
  C 436.50 284.10 439.09 283.19 440.53 283.02
  C 441.82 282.87 442.88 282.68 443.73 282.45
  C 444.98 282.12 446.03 281.89 446.86 281.77
  C 448.35 281.56 449.75 281.06 451.08 280.28
  Z"
/>
<path fill="#282c31" d="
  M 152.84 289.53
  C 155.10 290.81 157.47 292.02 159.94 293.17
  C 163.09 294.64 165.06 296.66 167.80 298.46
  C 168.18 298.71 168.42 299.14 168.43 299.60
  C 168.51 302.35 168.53 305.14 168.49 307.97
  C 168.48 309.11 168.86 310.05 169.65 310.80
  C 171.26 312.33 172.89 313.76 174.52 315.11
  C 175.33 315.78 176.26 316.18 177.31 316.31
  L 189.44 317.85
  C 178.39 325.70 167.41 333.51 156.50 341.29
  C 154.12 342.99 149.90 342.13 147.48 341.15
  C 142.10 338.98 136.60 336.76 130.98 334.48
  C 130.75 334.38 130.67 334.09 130.84 333.90
  C 140.37 323.04 149.84 312.16 159.24 301.27
  C 160.51 299.80 161.61 298.30 162.55 296.79
  C 162.78 296.42 162.56 295.94 162.13 295.87
  C 161.52 295.76 160.95 295.84 160.42 296.10
  C 157.25 297.67 153.71 299.58 149.82 301.82
  C 149.60 301.95 149.33 301.74 149.40 301.49
  L 152.84 289.53
  Z"
/>
<path fill="#282c31" d="
  M 309.86 307.17
  L 319.23 314.23
  L 304.92 323.97
  C 304.29 324.40 304.09 324.25 304.34 323.52
  L 309.86 307.17
  Z"
/>
<path fill="#50555a" d="
  M 376.11 309.09
  L 389.89 312.55
  L 438.28 343.68
  C 433.34 344.21 429.97 344.95 428.17 345.90
  C 421.07 349.69 413.58 352.42 405.69 354.11
  C 392.78 356.86 379.71 358.26 366.50 358.31
  C 358.73 358.34 351.15 358.64 343.75 359.22
  C 340.04 354.20 337.68 351.07 336.68 349.82
  C 335.79 348.72 335.41 347.64 335.55 346.58
  C 335.82 344.53 336.12 342.44 336.43 340.33
  C 336.51 339.80 336.27 339.27 335.81 338.98
  L 330.51 335.63
  L 321.25 325.53
  L 321.76 316.44
  C 322.05 316.89 322.40 317.25 322.80 317.50
  C 323.04 317.65 323.30 317.70 323.59 317.64
  L 326.57 316.99
  C 326.80 316.94 327.03 316.96 327.26 317.04
  C 328.08 317.33 328.73 317.14 329.21 316.45
  C 329.38 316.21 329.65 316.08 329.94 316.09
  C 330.65 316.12 331.35 316.13 332.06 316.14
  C 332.36 316.14 332.64 316.05 332.89 315.88
  C 332.96 315.83 333.01 315.75 333.03 315.66
  C 333.11 315.29 333.34 315.11 333.72 315.11
  C 335.59 315.12 337.40 315.13 339.14 315.13
  C 339.39 315.13 339.63 315.06 339.85 314.91
  C 339.96 314.84 340.03 314.74 340.06 314.61
  C 340.15 314.31 340.34 314.13 340.65 314.08
  C 341.34 313.97 341.79 314.18 342.02 314.71
  C 342.17 315.07 342.41 315.15 342.74 314.96
  C 342.91 314.87 343.02 314.73 343.09 314.56
  C 343.21 314.27 343.43 314.12 343.74 314.12
  L 352.24 314.12
  C 352.65 314.12 352.93 313.93 353.07 313.54
  C 353.12 313.40 353.14 313.25 353.13 313.10
  C 353.10 312.69 353.28 312.45 353.69 312.38
  C 355.24 312.12 356.85 312.05 358.52 312.17
  C 359.26 312.22 359.85 311.99 360.29 311.48
  C 360.42 311.32 360.56 311.32 360.70 311.47
  C 361.23 312.02 361.73 311.99 362.21 311.39
  C 362.43 311.11 362.71 310.94 363.06 310.87
  C 365.03 310.51 366.90 310.21 368.67 309.98
  C 368.89 309.95 369.09 309.86 369.27 309.71
  C 369.53 309.50 369.82 309.39 370.15 309.38
  L 376.11 309.09
  Z"
/>
<path fill="#282c31" d="
  M 321.25 325.53
  L 330.51 335.63
  L 315.76 337.58
  C 315.32 337.64 315.00 337.17 315.21 336.77
  L 321.25 325.53
  Z"
/>
</svg>
